ISO-10303-21;
HEADER;
FILE_DESCRIPTION(('FreeCAD Model'),'2;1');
FILE_NAME('Open CASCADE Shape Model','2026-08-31T00:13:35',(''),(''),
  'Open CASCADE STEP processor 7.8','FreeCAD','Unknown');
FILE_SCHEMA(('AUTOMOTIVE_DESIGN { 1 0 10303 214 1 1 1 1 }'));
ENDSEC;
DATA;
#1 = APPLICATION_PROTOCOL_DEFINITION('international standard',
  'automotive_design',2000,#2);
#2 = APPLICATION_CONTEXT(
  'core data for automotive mechanical design processes');
#3 = SHAPE_DEFINITION_REPRESENTATION(#4,#10);
#4 = PRODUCT_DEFINITION_SHAPE('','',#5);
#5 = PRODUCT_DEFINITION('design','',#6,#9);
#6 = PRODUCT_DEFINITION_FORMATION('','',#7);
#7 = PRODUCT('Motor_pulley','Motor_pulley','',(#8));
#8 = PRODUCT_CONTEXT('',#2,'mechanical');
#9 = PRODUCT_DEFINITION_CONTEXT('part definition',#2,'design');
#10 = ADVANCED_BREP_SHAPE_REPRESENTATION('',(#11,#15),#1357);
#11 = AXIS2_PLACEMENT_3D('',#12,#13,#14);
#12 = CARTESIAN_POINT('',(0.,0.,0.));
#13 = DIRECTION('',(0.,0.,1.));
#14 = DIRECTION('',(1.,0.,-0.));
#15 = MANIFOLD_SOLID_BREP('',#16);
#16 = CLOSED_SHELL('',(#17,#279,#334,#545,#599,#603,#695,#978,#1003,
    #1082,#1131,#1206,#1233,#1261,#1314,#1318,#1345,#1350));
#17 = ADVANCED_FACE('',(#18,#105),#32,.T.);
#18 = FACE_BOUND('',#19,.F.);
#19 = EDGE_LOOP('',(#20,#50,#77,#78));
#20 = ORIENTED_EDGE('',*,*,#21,.F.);
#21 = EDGE_CURVE('',#22,#24,#26,.T.);
#22 = VERTEX_POINT('',#23);
#23 = CARTESIAN_POINT('',(8.,-16.6,0.));
#24 = VERTEX_POINT('',#25);
#25 = CARTESIAN_POINT('',(8.,-5.,0.));
#26 = SEAM_CURVE('',#27,(#31,#43),.PCURVE_S1.);
#27 = LINE('',#28,#29);
#28 = CARTESIAN_POINT('',(8.,-17.,0.));
#29 = VECTOR('',#30,1.);
#30 = DIRECTION('',(0.,1.,0.));
#31 = PCURVE('',#32,#37);
#32 = CYLINDRICAL_SURFACE('',#33,8.);
#33 = AXIS2_PLACEMENT_3D('',#34,#35,#36);
#34 = CARTESIAN_POINT('',(0.,-17.,0.));
#35 = DIRECTION('',(0.,1.,0.));
#36 = DIRECTION('',(1.,0.,0.));
#37 = DEFINITIONAL_REPRESENTATION('',(#38),#42);
#38 = LINE('',#39,#40);
#39 = CARTESIAN_POINT('',(-0.,0.));
#40 = VECTOR('',#41,1.);
#41 = DIRECTION('',(-0.,1.));
#42 = ( GEOMETRIC_REPRESENTATION_CONTEXT(2) 
PARAMETRIC_REPRESENTATION_CONTEXT() REPRESENTATION_CONTEXT('2D SPACE',''
  ) );
#43 = PCURVE('',#32,#44);
#44 = DEFINITIONAL_REPRESENTATION('',(#45),#49);
#45 = LINE('',#46,#47);
#46 = CARTESIAN_POINT('',(-6.28318530718,0.));
#47 = VECTOR('',#48,1.);
#48 = DIRECTION('',(-0.,1.));
#49 = ( GEOMETRIC_REPRESENTATION_CONTEXT(2) 
PARAMETRIC_REPRESENTATION_CONTEXT() REPRESENTATION_CONTEXT('2D SPACE',''
  ) );
#50 = ORIENTED_EDGE('',*,*,#51,.T.);
#51 = EDGE_CURVE('',#22,#22,#52,.T.);
#52 = SURFACE_CURVE('',#53,(#58,#65),.PCURVE_S1.);
#53 = CIRCLE('',#54,8.);
#54 = AXIS2_PLACEMENT_3D('',#55,#56,#57);
#55 = CARTESIAN_POINT('',(0.,-16.6,0.));
#56 = DIRECTION('',(0.,-1.,0.));
#57 = DIRECTION('',(1.,0.,0.));
#58 = PCURVE('',#32,#59);
#59 = DEFINITIONAL_REPRESENTATION('',(#60),#64);
#60 = LINE('',#61,#62);
#61 = CARTESIAN_POINT('',(-0.,0.4));
#62 = VECTOR('',#63,1.);
#63 = DIRECTION('',(-1.,0.));
#64 = ( GEOMETRIC_REPRESENTATION_CONTEXT(2) 
PARAMETRIC_REPRESENTATION_CONTEXT() REPRESENTATION_CONTEXT('2D SPACE',''
  ) );
#65 = PCURVE('',#66,#71);
#66 = CONICAL_SURFACE('',#67,8.,0.785398163397);
#67 = AXIS2_PLACEMENT_3D('',#68,#69,#70);
#68 = CARTESIAN_POINT('',(0.,-16.6,0.));
#69 = DIRECTION('',(-0.,1.,-0.));
#70 = DIRECTION('',(1.,0.,0.));
#71 = DEFINITIONAL_REPRESENTATION('',(#72),#76);
#72 = LINE('',#73,#74);
#73 = CARTESIAN_POINT('',(-0.,-0.));
#74 = VECTOR('',#75,1.);
#75 = DIRECTION('',(-1.,-0.));
#76 = ( GEOMETRIC_REPRESENTATION_CONTEXT(2) 
PARAMETRIC_REPRESENTATION_CONTEXT() REPRESENTATION_CONTEXT('2D SPACE',''
  ) );
#77 = ORIENTED_EDGE('',*,*,#21,.T.);
#78 = ORIENTED_EDGE('',*,*,#79,.F.);
#79 = EDGE_CURVE('',#24,#24,#80,.T.);
#80 = SURFACE_CURVE('',#81,(#86,#93),.PCURVE_S1.);
#81 = CIRCLE('',#82,8.);
#82 = AXIS2_PLACEMENT_3D('',#83,#84,#85);
#83 = CARTESIAN_POINT('',(0.,-5.,0.));
#84 = DIRECTION('',(0.,-1.,0.));
#85 = DIRECTION('',(1.,0.,0.));
#86 = PCURVE('',#32,#87);
#87 = DEFINITIONAL_REPRESENTATION('',(#88),#92);
#88 = LINE('',#89,#90);
#89 = CARTESIAN_POINT('',(-0.,12.));
#90 = VECTOR('',#91,1.);
#91 = DIRECTION('',(-1.,0.));
#92 = ( GEOMETRIC_REPRESENTATION_CONTEXT(2) 
PARAMETRIC_REPRESENTATION_CONTEXT() REPRESENTATION_CONTEXT('2D SPACE',''
  ) );
#93 = PCURVE('',#94,#99);
#94 = PLANE('',#95);
#95 = AXIS2_PLACEMENT_3D('',#96,#97,#98);
#96 = CARTESIAN_POINT('',(0.,-5.,0.));
#97 = DIRECTION('',(-0.,-1.,-0.));
#98 = DIRECTION('',(1.,0.,0.));
#99 = DEFINITIONAL_REPRESENTATION('',(#100),#104);
#100 = CIRCLE('',#101,8.);
#101 = AXIS2_PLACEMENT_2D('',#102,#103);
#102 = CARTESIAN_POINT('',(0.,0.));
#103 = DIRECTION('',(1.,0.));
#104 = ( GEOMETRIC_REPRESENTATION_CONTEXT(2) 
PARAMETRIC_REPRESENTATION_CONTEXT() REPRESENTATION_CONTEXT('2D SPACE',''
  ) );
#105 = FACE_BOUND('',#106,.F.);
#106 = EDGE_LOOP('',(#107));
#107 = ORIENTED_EDGE('',*,*,#108,.T.);
#108 = EDGE_CURVE('',#109,#109,#111,.T.);
#109 = VERTEX_POINT('',#110);
#110 = CARTESIAN_POINT('',(1.55,-8.117691453624,7.848407481776));
#111 = SURFACE_CURVE('',#112,(#164,#219),.PCURVE_S1.);
#112 = B_SPLINE_CURVE_WITH_KNOTS('',8,(#113,#114,#115,#116,#117,#118,
    #119,#120,#121,#122,#123,#124,#125,#126,#127,#128,#129,#130,#131,
    #132,#133,#134,#135,#136,#137,#138,#139,#140,#141,#142,#143,#144,
    #145,#146,#147,#148,#149,#150,#151,#152,#153,#154,#155,#156,#157,
    #158,#159,#160,#161,#162,#163),.UNSPECIFIED.,.T.,.F.,(9,7,7,7,7,7,7,
    9),(0.,0.152639329069,0.286920983867,0.423777830337,0.577251983549,
    0.705494264311,0.829022764222,1.),.UNSPECIFIED.);
#113 = CARTESIAN_POINT('',(1.55,-8.117691453624,7.848407481776));
#114 = CARTESIAN_POINT('',(1.55,-7.954872745466,7.848407481776));
#115 = CARTESIAN_POINT('',(1.530454130666,-7.792084315924,7.852267499495
    ));
#116 = CARTESIAN_POINT('',(1.49137141656,-7.630927729157,7.859986597065)
  );
#117 = CARTESIAN_POINT('',(1.432470366389,-7.473119501669,7.871334977962
    ));
#118 = CARTESIAN_POINT('',(1.35326714565,-7.320646124205,7.885845209259)
  );
#119 = CARTESIAN_POINT('',(1.253151790526,-7.175937413667,7.902746496625
    ));
#120 = CARTESIAN_POINT('',(1.131517392624,-7.042117896785,7.920895313219
    ));
#121 = CARTESIAN_POINT('',(0.861756705959,-6.818952448581,7.954468017435
    ));
#122 = CARTESIAN_POINT('',(0.71467265733,-6.722964657051,7.97044300077)
  );
#123 = CARTESIAN_POINT('',(0.548994492459,-6.643141621086,7.985074797565
    ));
#124 = CARTESIAN_POINT('',(0.368737345327,-6.58517556607,7.996477794082)
  );
#125 = CARTESIAN_POINT('',(0.179211934522,-6.552782608218,8.00300200447)
  );
#126 = CARTESIAN_POINT('',(-1.363715044956E-02,-6.547719175115,
    8.003909971532));
#127 = CARTESIAN_POINT('',(-0.203726789529,-6.569724001916,
    7.999475145805));
#128 = CARTESIAN_POINT('',(-0.570697235246,-6.663945997921,
    7.981772602915));
#129 = CARTESIAN_POINT('',(-0.741764078191,-6.735707446232,
    7.968601723416));
#130 = CARTESIAN_POINT('',(-0.89656325958,-6.82721342441,7.952592326269)
  );
#131 = CARTESIAN_POINT('',(-1.033888593955,-6.934583818666,
    7.935262434271));
#132 = CARTESIAN_POINT('',(-1.153126952429,-7.054342520747,
    7.917989283122));
#133 = CARTESIAN_POINT('',(-1.254107494571,-7.183329217023,
    7.901885335366));
#134 = CARTESIAN_POINT('',(-1.337040889517,-7.318664258897,
    7.887758869349));
#135 = CARTESIAN_POINT('',(-1.475868895406,-7.613688788875,
    7.863038052761));
#136 = CARTESIAN_POINT('',(-1.528717121833,-7.777441883263,
    7.852821263791));
#137 = CARTESIAN_POINT('',(-1.560590163276,-7.946302264915,
    7.846317401496));
#138 = CARTESIAN_POINT('',(-1.571241113259,-8.117691453624,
    7.844085074334));
#139 = CARTESIAN_POINT('',(-1.560590163276,-8.289080642332,
    7.846317401496));
#140 = CARTESIAN_POINT('',(-1.528717121833,-8.457941023985,
    7.852821263791));
#141 = CARTESIAN_POINT('',(-1.475868895405,-8.621694118374,
    7.863038052762));
#142 = CARTESIAN_POINT('',(-1.341160129213,-8.907964818406,
    7.887025364834));
#143 = CARTESIAN_POINT('',(-1.264608203648,-9.034726279758,
    7.900093743573));
#144 = CARTESIAN_POINT('',(-1.172410275541,-9.155962155335,
    7.914899593993));
#145 = CARTESIAN_POINT('',(-1.06434385641,-9.269464281516,7.930809130996
    ));
#146 = CARTESIAN_POINT('',(-0.940423778008,-9.372765175184,
    7.946964401063));
#147 = CARTESIAN_POINT('',(-0.80096264243,-9.463100661066,7.962295736678
    ));
#148 = CARTESIAN_POINT('',(-0.646690484877,-9.53733542529,7.97558904677)
  );
#149 = CARTESIAN_POINT('',(-0.31742683944,-9.644319668946,7.995338162522
    ));
#150 = CARTESIAN_POINT('',(-0.145520601243,-9.677806037351,
    8.001899597707));
#151 = CARTESIAN_POINT('',(3.220117439691E-02,-9.688979961903,
    8.004243615037));
#152 = CARTESIAN_POINT('',(0.210538940902,-9.676476342543,8.001732998122
    ));
#153 = CARTESIAN_POINT('',(0.384126186979,-9.640769634549,7.994559187891
    ));
#154 = CARTESIAN_POINT('',(0.547926792528,-9.584138699979,7.983707985019
    ));
#155 = CARTESIAN_POINT('',(0.697717111071,-9.510686332804,7.970635024423
    ));
#156 = CARTESIAN_POINT('',(1.014361519755,-9.309737680593,7.937583534103
    ));
#157 = CARTESIAN_POINT('',(1.170530187754,-9.16923425133,7.916375698563)
  );
#158 = CARTESIAN_POINT('',(1.298897845065,-9.012015955497,7.895700729184
    ));
#159 = CARTESIAN_POINT('',(1.400209488077,-8.84315006043,7.877532125984)
  );
#160 = CARTESIAN_POINT('',(1.475348467725,-8.666508883221,7.863150014228
    ));
#161 = CARTESIAN_POINT('',(1.52510912561,-8.485115408994,7.853323354671)
  );
#162 = CARTESIAN_POINT('',(1.55,-8.30142548726,7.848407481776));
#163 = CARTESIAN_POINT('',(1.55,-8.117691453624,7.848407481776));
#164 = PCURVE('',#32,#165);
#165 = DEFINITIONAL_REPRESENTATION('',(#166),#218);
#166 = B_SPLINE_CURVE_WITH_KNOTS('',8,(#167,#168,#169,#170,#171,#172,
    #173,#174,#175,#176,#177,#178,#179,#180,#181,#182,#183,#184,#185,
    #186,#187,#188,#189,#190,#191,#192,#193,#194,#195,#196,#197,#198,
    #199,#200,#201,#202,#203,#204,#205,#206,#207,#208,#209,#210,#211,
    #212,#213,#214,#215,#216,#217),.UNSPECIFIED.,.F.,.F.,(9,7,7,7,7,7,7,
    9),(0.,0.152639329069,0.286920983867,0.423777830337,0.577251983549,
    0.705494264311,0.829022764222,1.),.UNSPECIFIED.);
#167 = CARTESIAN_POINT('',(-1.375813181159,8.882308546376));
#168 = CARTESIAN_POINT('',(-1.375813181159,9.045127254534));
#169 = CARTESIAN_POINT('',(-1.378303605336,9.207915684076));
#170 = CARTESIAN_POINT('',(-1.383283309796,9.369072270843));
#171 = CARTESIAN_POINT('',(-1.390781277413,9.526880498331));
#172 = CARTESIAN_POINT('',(-1.400845514006,9.679353875795));
#173 = CARTESIAN_POINT('',(-1.413534065603,9.824062586333));
#174 = CARTESIAN_POINT('',(-1.428902138667,9.957882103215));
#175 = CARTESIAN_POINT('',(-1.462882361439,10.181047551419));
#176 = CARTESIAN_POINT('',(-1.481373722845,10.277035342949));
#177 = CARTESIAN_POINT('',(-1.502157010299,10.356858378914));
#178 = CARTESIAN_POINT('',(-1.524719313447,10.41482443393));
#179 = CARTESIAN_POINT('',(-1.548403444692,10.447217391781));
#180 = CARTESIAN_POINT('',(-1.572494117406,10.452280824885));
#181 = CARTESIAN_POINT('',(-1.596254421789,10.430275998084));
#182 = CARTESIAN_POINT('',(-1.64217906932,10.336054002079));
#183 = CARTESIAN_POINT('',(-1.663616899838,10.264292553768));
#184 = CARTESIAN_POINT('',(-1.683059794176,10.17278657559));
#185 = CARTESIAN_POINT('',(-1.700354721817,10.065416181334));
#186 = CARTESIAN_POINT('',(-1.71541190528,9.945657479253));
#187 = CARTESIAN_POINT('',(-1.728192690914,9.816670782977));
#188 = CARTESIAN_POINT('',(-1.738708401028,9.681335741103));
#189 = CARTESIAN_POINT('',(-1.756334878799,9.386311211125));
#190 = CARTESIAN_POINT('',(-1.763062481751,9.222558116737));
#191 = CARTESIAN_POINT('',(-1.76712870034,9.053697735085));
#192 = CARTESIAN_POINT('',(-1.768489130075,8.882308546376));
#193 = CARTESIAN_POINT('',(-1.76712870034,8.710919357668));
#194 = CARTESIAN_POINT('',(-1.763062481751,8.542058976015));
#195 = CARTESIAN_POINT('',(-1.756334878799,8.378305881626));
#196 = CARTESIAN_POINT('',(-1.739231405637,8.092035181594));
#197 = CARTESIAN_POINT('',(-1.729524219061,7.965273720242));
#198 = CARTESIAN_POINT('',(-1.717852832057,7.844037844665));
#199 = CARTESIAN_POINT('',(-1.704201367668,7.730535718484));
#200 = CARTESIAN_POINT('',(-1.688585313091,7.627234824816));
#201 = CARTESIAN_POINT('',(-1.671055043953,7.536899338934));
#202 = CARTESIAN_POINT('',(-1.651706141621,7.46266457471));
#203 = CARTESIAN_POINT('',(-1.610474218351,7.355680331054));
#204 = CARTESIAN_POINT('',(-1.588975344009,7.322193962649));
#205 = CARTESIAN_POINT('',(-1.566769953891,7.311020038097));
#206 = CARTESIAN_POINT('',(-1.544491852143,7.323523657457));
#207 = CARTESIAN_POINT('',(-1.522789229628,7.359230365451));
#208 = CARTESIAN_POINT('',(-1.502276712512,7.415861300021));
#209 = CARTESIAN_POINT('',(-1.483484486844,7.489313667196));
#210 = CARTESIAN_POINT('',(-1.443688899274,7.690262319407));
#211 = CARTESIAN_POINT('',(-1.423998089508,7.83076574867));
#212 = CARTESIAN_POINT('',(-1.407751704831,7.987984044503));
#213 = CARTESIAN_POINT('',(-1.394887483757,8.15684993957));
#214 = CARTESIAN_POINT('',(-1.385324876251,8.333491116779));
#215 = CARTESIAN_POINT('',(-1.378984633122,8.514884591006));
#216 = CARTESIAN_POINT('',(-1.375813181159,8.69857451274));
#217 = CARTESIAN_POINT('',(-1.375813181159,8.882308546376));
#218 = ( GEOMETRIC_REPRESENTATION_CONTEXT(2) 
PARAMETRIC_REPRESENTATION_CONTEXT() REPRESENTATION_CONTEXT('2D SPACE',''
  ) );
#219 = PCURVE('',#220,#225);
#220 = CYLINDRICAL_SURFACE('',#221,1.55);
#221 = AXIS2_PLACEMENT_3D('',#222,#223,#224);
#222 = CARTESIAN_POINT('',(0.,-8.117691453624,0.));
#223 = DIRECTION('',(-0.,-0.,-1.));
#224 = DIRECTION('',(1.,0.,0.));
#225 = DEFINITIONAL_REPRESENTATION('',(#226),#278);
#226 = B_SPLINE_CURVE_WITH_KNOTS('',8,(#227,#228,#229,#230,#231,#232,
    #233,#234,#235,#236,#237,#238,#239,#240,#241,#242,#243,#244,#245,
    #246,#247,#248,#249,#250,#251,#252,#253,#254,#255,#256,#257,#258,
    #259,#260,#261,#262,#263,#264,#265,#266,#267,#268,#269,#270,#271,
    #272,#273,#274,#275,#276,#277),.UNSPECIFIED.,.F.,.F.,(9,7,7,7,7,7,7,
    9),(0.,0.152639329069,0.286920983867,0.423777830337,0.577251983549,
    0.705494264311,0.829022764222,1.),.UNSPECIFIED.);
#227 = CARTESIAN_POINT('',(0.,-7.848407481776));
#228 = CARTESIAN_POINT('',(-0.105044327844,-7.848407481776));
#229 = CARTESIAN_POINT('',(-0.210068641423,-7.852267499495));
#230 = CARTESIAN_POINT('',(-0.31580855512,-7.859986597065));
#231 = CARTESIAN_POINT('',(-0.422914437629,-7.871334977962));
#232 = CARTESIAN_POINT('',(-0.532065503889,-7.885845209259));
#233 = CARTESIAN_POINT('',(-0.643985229671,-7.902746496625));
#234 = CARTESIAN_POINT('',(-0.759482880051,-7.920895313219));
#235 = CARTESIAN_POINT('',(-0.985357197356,-7.954468017435));
#236 = CARTESIAN_POINT('',(-1.097947778131,-7.97044300077));
#237 = CARTESIAN_POINT('',(-1.21493270117,-7.985074797565));
#238 = CARTESIAN_POINT('',(-1.334766335846,-7.996477794082));
#239 = CARTESIAN_POINT('',(-1.456351282296,-8.00300200447));
#240 = CARTESIAN_POINT('',(-1.578750935699,-8.003909971532));
#241 = CARTESIAN_POINT('',(-1.701067279023,-7.999475145805));
#242 = CARTESIAN_POINT('',(-1.945501764125,-7.981772602915));
#243 = CARTESIAN_POINT('',(-2.063914477904,-7.968601723416));
#244 = CARTESIAN_POINT('',(-2.178188074972,-7.952592326269));
#245 = CARTESIAN_POINT('',(-2.288853162675,-7.935262434271));
#246 = CARTESIAN_POINT('',(-2.396302245643,-7.917989283122));
#247 = CARTESIAN_POINT('',(-2.500826213793,-7.901885335366));
#248 = CARTESIAN_POINT('',(-2.602610263563,-7.887758869349));
#249 = CARTESIAN_POINT('',(-2.812969144764,-7.863038052761));
#250 = CARTESIAN_POINT('',(-2.923078762574,-7.852821263791));
#251 = CARTESIAN_POINT('',(-3.032503221103,-7.846317401496));
#252 = CARTESIAN_POINT('',(-3.14159265359,-7.844085074334));
#253 = CARTESIAN_POINT('',(-3.250682086076,-7.846317401496));
#254 = CARTESIAN_POINT('',(-3.360106544606,-7.852821263791));
#255 = CARTESIAN_POINT('',(-3.470216162416,-7.863038052762));
#256 = CARTESIAN_POINT('',(-3.674333373225,-7.887025364834));
#257 = CARTESIAN_POINT('',(-3.769359767964,-7.900093743573));
#258 = CARTESIAN_POINT('',(-3.866682475923,-7.914899593993));
#259 = CARTESIAN_POINT('',(-3.966524391537,-7.930809130996));
#260 = CARTESIAN_POINT('',(-4.069175977368,-7.946964401063));
#261 = CARTESIAN_POINT('',(-4.174999416121,-7.962295736678));
#262 = CARTESIAN_POINT('',(-4.284458691502,-7.97558904677));
#263 = CARTESIAN_POINT('',(-4.507818875368,-7.995338162522));
#264 = CARTESIAN_POINT('',(-4.619973618902,-8.001899597707));
#265 = CARTESIAN_POINT('',(-4.733255505424,-8.004243615037));
#266 = CARTESIAN_POINT('',(-4.846597825414,-8.001732998122));
#267 = CARTESIAN_POINT('',(-4.959009164791,-7.994559187891));
#268 = CARTESIAN_POINT('',(-5.069402940515,-7.983707985019));
#269 = CARTESIAN_POINT('',(-5.176390535092,-7.970635024423));
#270 = CARTESIAN_POINT('',(-5.418342398947,-7.937583534103));
#271 = CARTESIAN_POINT('',(-5.551983428506,-7.916375698563));
#272 = CARTESIAN_POINT('',(-5.680479448466,-7.895700729184));
#273 = CARTESIAN_POINT('',(-5.80499674744,-7.877532125984));
#274 = CARTESIAN_POINT('',(-5.926572938423,-7.863150014228));
#275 = CARTESIAN_POINT('',(-6.046137278593,-7.853323354671));
#276 = CARTESIAN_POINT('',(-6.164647220963,-7.848407481776));
#277 = CARTESIAN_POINT('',(-6.28318530718,-7.848407481776));
#278 = ( GEOMETRIC_REPRESENTATION_CONTEXT(2) 
PARAMETRIC_REPRESENTATION_CONTEXT() REPRESENTATION_CONTEXT('2D SPACE',''
  ) );
#279 = ADVANCED_FACE('',(#280),#66,.T.);
#280 = FACE_BOUND('',#281,.T.);
#281 = EDGE_LOOP('',(#282,#305,#306,#307));
#282 = ORIENTED_EDGE('',*,*,#283,.F.);
#283 = EDGE_CURVE('',#22,#284,#286,.T.);
#284 = VERTEX_POINT('',#285);
#285 = CARTESIAN_POINT('',(7.6,-17.,0.));
#286 = SEAM_CURVE('',#287,(#291,#298),.PCURVE_S1.);
#287 = LINE('',#288,#289);
#288 = CARTESIAN_POINT('',(8.,-16.6,0.));
#289 = VECTOR('',#290,1.);
#290 = DIRECTION('',(-0.707106781187,-0.707106781187,0.));
#291 = PCURVE('',#66,#292);
#292 = DEFINITIONAL_REPRESENTATION('',(#293),#297);
#293 = LINE('',#294,#295);
#294 = CARTESIAN_POINT('',(-0.,-0.));
#295 = VECTOR('',#296,1.);
#296 = DIRECTION('',(-0.,-1.));
#297 = ( GEOMETRIC_REPRESENTATION_CONTEXT(2) 
PARAMETRIC_REPRESENTATION_CONTEXT() REPRESENTATION_CONTEXT('2D SPACE',''
  ) );
#298 = PCURVE('',#66,#299);
#299 = DEFINITIONAL_REPRESENTATION('',(#300),#304);
#300 = LINE('',#301,#302);
#301 = CARTESIAN_POINT('',(-6.28318530718,-0.));
#302 = VECTOR('',#303,1.);
#303 = DIRECTION('',(-0.,-1.));
#304 = ( GEOMETRIC_REPRESENTATION_CONTEXT(2) 
PARAMETRIC_REPRESENTATION_CONTEXT() REPRESENTATION_CONTEXT('2D SPACE',''
  ) );
#305 = ORIENTED_EDGE('',*,*,#51,.T.);
#306 = ORIENTED_EDGE('',*,*,#283,.T.);
#307 = ORIENTED_EDGE('',*,*,#308,.F.);
#308 = EDGE_CURVE('',#284,#284,#309,.T.);
#309 = SURFACE_CURVE('',#310,(#315,#322),.PCURVE_S1.);
#310 = CIRCLE('',#311,7.6);
#311 = AXIS2_PLACEMENT_3D('',#312,#313,#314);
#312 = CARTESIAN_POINT('',(0.,-17.,0.));
#313 = DIRECTION('',(0.,-1.,0.));
#314 = DIRECTION('',(1.,0.,0.));
#315 = PCURVE('',#66,#316);
#316 = DEFINITIONAL_REPRESENTATION('',(#317),#321);
#317 = LINE('',#318,#319);
#318 = CARTESIAN_POINT('',(-0.,-0.4));
#319 = VECTOR('',#320,1.);
#320 = DIRECTION('',(-1.,-0.));
#321 = ( GEOMETRIC_REPRESENTATION_CONTEXT(2) 
PARAMETRIC_REPRESENTATION_CONTEXT() REPRESENTATION_CONTEXT('2D SPACE',''
  ) );
#322 = PCURVE('',#323,#328);
#323 = PLANE('',#324);
#324 = AXIS2_PLACEMENT_3D('',#325,#326,#327);
#325 = CARTESIAN_POINT('',(0.,-17.,0.));
#326 = DIRECTION('',(-0.,-1.,-0.));
#327 = DIRECTION('',(1.,0.,0.));
#328 = DEFINITIONAL_REPRESENTATION('',(#329),#333);
#329 = CIRCLE('',#330,7.6);
#330 = AXIS2_PLACEMENT_2D('',#331,#332);
#331 = CARTESIAN_POINT('',(0.,0.));
#332 = DIRECTION('',(1.,0.));
#333 = ( GEOMETRIC_REPRESENTATION_CONTEXT(2) 
PARAMETRIC_REPRESENTATION_CONTEXT() REPRESENTATION_CONTEXT('2D SPACE',''
  ) );
#334 = ADVANCED_FACE('',(#335,#338,#431),#94,.F.);
#335 = FACE_BOUND('',#336,.F.);
#336 = EDGE_LOOP('',(#337));
#337 = ORIENTED_EDGE('',*,*,#79,.T.);
#338 = FACE_BOUND('',#339,.F.);
#339 = EDGE_LOOP('',(#340,#371,#400));
#340 = ORIENTED_EDGE('',*,*,#341,.F.);
#341 = EDGE_CURVE('',#342,#344,#346,.T.);
#342 = VERTEX_POINT('',#343);
#343 = CARTESIAN_POINT('',(1.55,-5.,0.));
#344 = VERTEX_POINT('',#345);
#345 = CARTESIAN_POINT('',(1.140175425099,-5.,1.05));
#346 = SURFACE_CURVE('',#347,(#352,#359),.PCURVE_S1.);
#347 = CIRCLE('',#348,1.55);
#348 = AXIS2_PLACEMENT_3D('',#349,#350,#351);
#349 = CARTESIAN_POINT('',(0.,-5.,0.));
#350 = DIRECTION('',(0.,-1.,0.));
#351 = DIRECTION('',(1.,0.,0.));
#352 = PCURVE('',#94,#353);
#353 = DEFINITIONAL_REPRESENTATION('',(#354),#358);
#354 = CIRCLE('',#355,1.55);
#355 = AXIS2_PLACEMENT_2D('',#356,#357);
#356 = CARTESIAN_POINT('',(0.,0.));
#357 = DIRECTION('',(1.,0.));
#358 = ( GEOMETRIC_REPRESENTATION_CONTEXT(2) 
PARAMETRIC_REPRESENTATION_CONTEXT() REPRESENTATION_CONTEXT('2D SPACE',''
  ) );
#359 = PCURVE('',#360,#365);
#360 = CYLINDRICAL_SURFACE('',#361,1.55);
#361 = AXIS2_PLACEMENT_3D('',#362,#363,#364);
#362 = CARTESIAN_POINT('',(0.,-16.5,0.));
#363 = DIRECTION('',(0.,1.,0.));
#364 = DIRECTION('',(1.,0.,0.));
#365 = DEFINITIONAL_REPRESENTATION('',(#366),#370);
#366 = LINE('',#367,#368);
#367 = CARTESIAN_POINT('',(-0.,11.5));
#368 = VECTOR('',#369,1.);
#369 = DIRECTION('',(-1.,0.));
#370 = ( GEOMETRIC_REPRESENTATION_CONTEXT(2) 
PARAMETRIC_REPRESENTATION_CONTEXT() REPRESENTATION_CONTEXT('2D SPACE',''
  ) );
#371 = ORIENTED_EDGE('',*,*,#372,.F.);
#372 = EDGE_CURVE('',#373,#342,#375,.T.);
#373 = VERTEX_POINT('',#374);
#374 = CARTESIAN_POINT('',(-1.140175425099,-5.,1.05));
#375 = SURFACE_CURVE('',#376,(#381,#388),.PCURVE_S1.);
#376 = CIRCLE('',#377,1.55);
#377 = AXIS2_PLACEMENT_3D('',#378,#379,#380);
#378 = CARTESIAN_POINT('',(0.,-5.,0.));
#379 = DIRECTION('',(0.,-1.,0.));
#380 = DIRECTION('',(1.,0.,0.));
#381 = PCURVE('',#94,#382);
#382 = DEFINITIONAL_REPRESENTATION('',(#383),#387);
#383 = CIRCLE('',#384,1.55);
#384 = AXIS2_PLACEMENT_2D('',#385,#386);
#385 = CARTESIAN_POINT('',(0.,0.));
#386 = DIRECTION('',(1.,0.));
#387 = ( GEOMETRIC_REPRESENTATION_CONTEXT(2) 
PARAMETRIC_REPRESENTATION_CONTEXT() REPRESENTATION_CONTEXT('2D SPACE',''
  ) );
#388 = PCURVE('',#389,#394);
#389 = CYLINDRICAL_SURFACE('',#390,1.55);
#390 = AXIS2_PLACEMENT_3D('',#391,#392,#393);
#391 = CARTESIAN_POINT('',(0.,-16.5,0.));
#392 = DIRECTION('',(0.,1.,0.));
#393 = DIRECTION('',(1.,0.,0.));
#394 = DEFINITIONAL_REPRESENTATION('',(#395),#399);
#395 = LINE('',#396,#397);
#396 = CARTESIAN_POINT('',(-0.,11.5));
#397 = VECTOR('',#398,1.);
#398 = DIRECTION('',(-1.,0.));
#399 = ( GEOMETRIC_REPRESENTATION_CONTEXT(2) 
PARAMETRIC_REPRESENTATION_CONTEXT() REPRESENTATION_CONTEXT('2D SPACE',''
  ) );
#400 = ORIENTED_EDGE('',*,*,#401,.F.);
#401 = EDGE_CURVE('',#344,#373,#402,.T.);
#402 = SURFACE_CURVE('',#403,(#408,#415),.PCURVE_S1.);
#403 = CIRCLE('',#404,1.55);
#404 = AXIS2_PLACEMENT_3D('',#405,#406,#407);
#405 = CARTESIAN_POINT('',(0.,-5.,0.));
#406 = DIRECTION('',(0.,-1.,0.));
#407 = DIRECTION('',(1.,0.,0.));
#408 = PCURVE('',#94,#409);
#409 = DEFINITIONAL_REPRESENTATION('',(#410),#414);
#410 = CIRCLE('',#411,1.55);
#411 = AXIS2_PLACEMENT_2D('',#412,#413);
#412 = CARTESIAN_POINT('',(0.,0.));
#413 = DIRECTION('',(1.,0.));
#414 = ( GEOMETRIC_REPRESENTATION_CONTEXT(2) 
PARAMETRIC_REPRESENTATION_CONTEXT() REPRESENTATION_CONTEXT('2D SPACE',''
  ) );
#415 = PCURVE('',#416,#421);
#416 = PLANE('',#417);
#417 = AXIS2_PLACEMENT_3D('',#418,#419,#420);
#418 = CARTESIAN_POINT('',(2.7E-16,-5.,1.204819103556));
#419 = DIRECTION('',(0.,1.,0.));
#420 = DIRECTION('',(0.,0.,1.));
#421 = DEFINITIONAL_REPRESENTATION('',(#422),#430);
#422 = ( BOUNDED_CURVE() B_SPLINE_CURVE(2,(#423,#424,#425,#426,#427,#428
,#429),.UNSPECIFIED.,.T.,.F.) B_SPLINE_CURVE_WITH_KNOTS((1,2,2,2,2,1),(
    -2.094395102393,0.,2.094395102393,4.188790204786,6.28318530718,
8.377580409573),.UNSPECIFIED.) CURVE() GEOMETRIC_REPRESENTATION_ITEM() 
RATIONAL_B_SPLINE_CURVE((1.,0.5,1.,0.5,1.,0.5,1.)) REPRESENTATION_ITEM(
  '') );
#423 = CARTESIAN_POINT('',(-1.204819103556,1.55));
#424 = CARTESIAN_POINT('',(1.479859648176,1.55));
#425 = CARTESIAN_POINT('',(0.13752027231,-0.775));
#426 = CARTESIAN_POINT('',(-1.204819103556,-3.1));
#427 = CARTESIAN_POINT('',(-2.547158479422,-0.775));
#428 = CARTESIAN_POINT('',(-3.889497855288,1.55));
#429 = CARTESIAN_POINT('',(-1.204819103556,1.55));
#430 = ( GEOMETRIC_REPRESENTATION_CONTEXT(2) 
PARAMETRIC_REPRESENTATION_CONTEXT() REPRESENTATION_CONTEXT('2D SPACE',''
  ) );
#431 = FACE_BOUND('',#432,.F.);
#432 = EDGE_LOOP('',(#433,#463,#491,#519));
#433 = ORIENTED_EDGE('',*,*,#434,.T.);
#434 = EDGE_CURVE('',#435,#437,#439,.T.);
#435 = VERTEX_POINT('',#436);
#436 = CARTESIAN_POINT('',(-2.75,-5.,4.6));
#437 = VERTEX_POINT('',#438);
#438 = CARTESIAN_POINT('',(2.75,-5.,4.6));
#439 = SURFACE_CURVE('',#440,(#444,#451),.PCURVE_S1.);
#440 = LINE('',#441,#442);
#441 = CARTESIAN_POINT('',(-2.75,-5.,4.6));
#442 = VECTOR('',#443,1.);
#443 = DIRECTION('',(1.,0.,0.));
#444 = PCURVE('',#94,#445);
#445 = DEFINITIONAL_REPRESENTATION('',(#446),#450);
#446 = LINE('',#447,#448);
#447 = CARTESIAN_POINT('',(-2.75,4.6));
#448 = VECTOR('',#449,1.);
#449 = DIRECTION('',(1.,0.));
#450 = ( GEOMETRIC_REPRESENTATION_CONTEXT(2) 
PARAMETRIC_REPRESENTATION_CONTEXT() REPRESENTATION_CONTEXT('2D SPACE',''
  ) );
#451 = PCURVE('',#452,#457);
#452 = PLANE('',#453);
#453 = AXIS2_PLACEMENT_3D('',#454,#455,#456);
#454 = CARTESIAN_POINT('',(-2.75,-5.,4.6));
#455 = DIRECTION('',(0.,2.2E-16,1.));
#456 = DIRECTION('',(1.,0.,0.));
#457 = DEFINITIONAL_REPRESENTATION('',(#458),#462);
#458 = LINE('',#459,#460);
#459 = CARTESIAN_POINT('',(0.,-8.881784197001E-16));
#460 = VECTOR('',#461,1.);
#461 = DIRECTION('',(1.,0.));
#462 = ( GEOMETRIC_REPRESENTATION_CONTEXT(2) 
PARAMETRIC_REPRESENTATION_CONTEXT() REPRESENTATION_CONTEXT('2D SPACE',''
  ) );
#463 = ORIENTED_EDGE('',*,*,#464,.T.);
#464 = EDGE_CURVE('',#437,#465,#467,.T.);
#465 = VERTEX_POINT('',#466);
#466 = CARTESIAN_POINT('',(2.75,-5.,2.));
#467 = SURFACE_CURVE('',#468,(#472,#479),.PCURVE_S1.);
#468 = LINE('',#469,#470);
#469 = CARTESIAN_POINT('',(2.75,-5.,4.6));
#470 = VECTOR('',#471,1.);
#471 = DIRECTION('',(0.,0.,-1.));
#472 = PCURVE('',#94,#473);
#473 = DEFINITIONAL_REPRESENTATION('',(#474),#478);
#474 = LINE('',#475,#476);
#475 = CARTESIAN_POINT('',(2.75,4.6));
#476 = VECTOR('',#477,1.);
#477 = DIRECTION('',(0.,-1.));
#478 = ( GEOMETRIC_REPRESENTATION_CONTEXT(2) 
PARAMETRIC_REPRESENTATION_CONTEXT() REPRESENTATION_CONTEXT('2D SPACE',''
  ) );
#479 = PCURVE('',#480,#485);
#480 = PLANE('',#481);
#481 = AXIS2_PLACEMENT_3D('',#482,#483,#484);
#482 = CARTESIAN_POINT('',(2.75,-5.,4.6));
#483 = DIRECTION('',(1.,0.,0.));
#484 = DIRECTION('',(0.,-2.2E-16,-1.));
#485 = DEFINITIONAL_REPRESENTATION('',(#486),#490);
#486 = LINE('',#487,#488);
#487 = CARTESIAN_POINT('',(1.95399252334E-31,-8.881784197001E-16));
#488 = VECTOR('',#489,1.);
#489 = DIRECTION('',(1.,2.2E-16));
#490 = ( GEOMETRIC_REPRESENTATION_CONTEXT(2) 
PARAMETRIC_REPRESENTATION_CONTEXT() REPRESENTATION_CONTEXT('2D SPACE',''
  ) );
#491 = ORIENTED_EDGE('',*,*,#492,.T.);
#492 = EDGE_CURVE('',#465,#493,#495,.T.);
#493 = VERTEX_POINT('',#494);
#494 = CARTESIAN_POINT('',(-2.75,-5.,2.));
#495 = SURFACE_CURVE('',#496,(#500,#507),.PCURVE_S1.);
#496 = LINE('',#497,#498);
#497 = CARTESIAN_POINT('',(2.75,-5.,2.));
#498 = VECTOR('',#499,1.);
#499 = DIRECTION('',(-1.,0.,0.));
#500 = PCURVE('',#94,#501);
#501 = DEFINITIONAL_REPRESENTATION('',(#502),#506);
#502 = LINE('',#503,#504);
#503 = CARTESIAN_POINT('',(2.75,2.));
#504 = VECTOR('',#505,1.);
#505 = DIRECTION('',(-1.,0.));
#506 = ( GEOMETRIC_REPRESENTATION_CONTEXT(2) 
PARAMETRIC_REPRESENTATION_CONTEXT() REPRESENTATION_CONTEXT('2D SPACE',''
  ) );
#507 = PCURVE('',#508,#513);
#508 = PLANE('',#509);
#509 = AXIS2_PLACEMENT_3D('',#510,#511,#512);
#510 = CARTESIAN_POINT('',(2.75,-5.,2.));
#511 = DIRECTION('',(-0.,-2.2E-16,-1.));
#512 = DIRECTION('',(-1.,0.,0.));
#513 = DEFINITIONAL_REPRESENTATION('',(#514),#518);
#514 = LINE('',#515,#516);
#515 = CARTESIAN_POINT('',(0.,0.));
#516 = VECTOR('',#517,1.);
#517 = DIRECTION('',(1.,0.));
#518 = ( GEOMETRIC_REPRESENTATION_CONTEXT(2) 
PARAMETRIC_REPRESENTATION_CONTEXT() REPRESENTATION_CONTEXT('2D SPACE',''
  ) );
#519 = ORIENTED_EDGE('',*,*,#520,.T.);
#520 = EDGE_CURVE('',#493,#435,#521,.T.);
#521 = SURFACE_CURVE('',#522,(#526,#533),.PCURVE_S1.);
#522 = LINE('',#523,#524);
#523 = CARTESIAN_POINT('',(-2.75,-5.,2.));
#524 = VECTOR('',#525,1.);
#525 = DIRECTION('',(0.,0.,1.));
#526 = PCURVE('',#94,#527);
#527 = DEFINITIONAL_REPRESENTATION('',(#528),#532);
#528 = LINE('',#529,#530);
#529 = CARTESIAN_POINT('',(-2.75,2.));
#530 = VECTOR('',#531,1.);
#531 = DIRECTION('',(0.,1.));
#532 = ( GEOMETRIC_REPRESENTATION_CONTEXT(2) 
PARAMETRIC_REPRESENTATION_CONTEXT() REPRESENTATION_CONTEXT('2D SPACE',''
  ) );
#533 = PCURVE('',#534,#539);
#534 = PLANE('',#535);
#535 = AXIS2_PLACEMENT_3D('',#536,#537,#538);
#536 = CARTESIAN_POINT('',(-2.75,-5.,2.));
#537 = DIRECTION('',(-1.,0.,0.));
#538 = DIRECTION('',(0.,2.2E-16,1.));
#539 = DEFINITIONAL_REPRESENTATION('',(#540),#544);
#540 = LINE('',#541,#542);
#541 = CARTESIAN_POINT('',(0.,0.));
#542 = VECTOR('',#543,1.);
#543 = DIRECTION('',(1.,-2.2E-16));
#544 = ( GEOMETRIC_REPRESENTATION_CONTEXT(2) 
PARAMETRIC_REPRESENTATION_CONTEXT() REPRESENTATION_CONTEXT('2D SPACE',''
  ) );
#545 = ADVANCED_FACE('',(#546),#220,.F.);
#546 = FACE_BOUND('',#547,.T.);
#547 = EDGE_LOOP('',(#548,#576,#597,#598));
#548 = ORIENTED_EDGE('',*,*,#549,.T.);
#549 = EDGE_CURVE('',#550,#550,#552,.T.);
#550 = VERTEX_POINT('',#551);
#551 = CARTESIAN_POINT('',(1.55,-8.117691453624,4.6));
#552 = SURFACE_CURVE('',#553,(#558,#565),.PCURVE_S1.);
#553 = CIRCLE('',#554,1.55);
#554 = AXIS2_PLACEMENT_3D('',#555,#556,#557);
#555 = CARTESIAN_POINT('',(0.,-8.117691453624,4.6));
#556 = DIRECTION('',(0.,0.,-1.));
#557 = DIRECTION('',(1.,0.,0.));
#558 = PCURVE('',#220,#559);
#559 = DEFINITIONAL_REPRESENTATION('',(#560),#564);
#560 = LINE('',#561,#562);
#561 = CARTESIAN_POINT('',(-6.28318530718,-4.6));
#562 = VECTOR('',#563,1.);
#563 = DIRECTION('',(1.,-0.));
#564 = ( GEOMETRIC_REPRESENTATION_CONTEXT(2) 
PARAMETRIC_REPRESENTATION_CONTEXT() REPRESENTATION_CONTEXT('2D SPACE',''
  ) );
#565 = PCURVE('',#452,#566);
#566 = DEFINITIONAL_REPRESENTATION('',(#567),#575);
#567 = ( BOUNDED_CURVE() B_SPLINE_CURVE(2,(#568,#569,#570,#571,#572,#573
,#574),.UNSPECIFIED.,.T.,.F.) B_SPLINE_CURVE_WITH_KNOTS((1,2,2,2,2,1),(
    -2.094395102393,0.,2.094395102393,4.188790204786,6.28318530718,
8.377580409573),.UNSPECIFIED.) CURVE() GEOMETRIC_REPRESENTATION_ITEM() 
RATIONAL_B_SPLINE_CURVE((1.,0.5,1.,0.5,1.,0.5,1.)) REPRESENTATION_ITEM(
  '') );
#568 = CARTESIAN_POINT('',(4.3,-3.117691453624));
#569 = CARTESIAN_POINT('',(4.3,-5.802370205356));
#570 = CARTESIAN_POINT('',(1.975,-4.46003082949));
#571 = CARTESIAN_POINT('',(-0.35,-3.117691453624));
#572 = CARTESIAN_POINT('',(1.975,-1.775352077758));
#573 = CARTESIAN_POINT('',(4.3,-0.433012701892));
#574 = CARTESIAN_POINT('',(4.3,-3.117691453624));
#575 = ( GEOMETRIC_REPRESENTATION_CONTEXT(2) 
PARAMETRIC_REPRESENTATION_CONTEXT() REPRESENTATION_CONTEXT('2D SPACE',''
  ) );
#576 = ORIENTED_EDGE('',*,*,#577,.T.);
#577 = EDGE_CURVE('',#550,#109,#578,.T.);
#578 = SEAM_CURVE('',#579,(#583,#590),.PCURVE_S1.);
#579 = LINE('',#580,#581);
#580 = CARTESIAN_POINT('',(1.55,-8.117691453624,0.));
#581 = VECTOR('',#582,1.);
#582 = DIRECTION('',(0.,0.,1.));
#583 = PCURVE('',#220,#584);
#584 = DEFINITIONAL_REPRESENTATION('',(#585),#589);
#585 = LINE('',#586,#587);
#586 = CARTESIAN_POINT('',(-6.28318530718,0.));
#587 = VECTOR('',#588,1.);
#588 = DIRECTION('',(-0.,-1.));
#589 = ( GEOMETRIC_REPRESENTATION_CONTEXT(2) 
PARAMETRIC_REPRESENTATION_CONTEXT() REPRESENTATION_CONTEXT('2D SPACE',''
  ) );
#590 = PCURVE('',#220,#591);
#591 = DEFINITIONAL_REPRESENTATION('',(#592),#596);
#592 = LINE('',#593,#594);
#593 = CARTESIAN_POINT('',(-0.,0.));
#594 = VECTOR('',#595,1.);
#595 = DIRECTION('',(-0.,-1.));
#596 = ( GEOMETRIC_REPRESENTATION_CONTEXT(2) 
PARAMETRIC_REPRESENTATION_CONTEXT() REPRESENTATION_CONTEXT('2D SPACE',''
  ) );
#597 = ORIENTED_EDGE('',*,*,#108,.T.);
#598 = ORIENTED_EDGE('',*,*,#577,.F.);
#599 = ADVANCED_FACE('',(#600),#323,.T.);
#600 = FACE_BOUND('',#601,.T.);
#601 = EDGE_LOOP('',(#602));
#602 = ORIENTED_EDGE('',*,*,#308,.T.);
#603 = ADVANCED_FACE('',(#604),#360,.F.);
#604 = FACE_BOUND('',#605,.T.);
#605 = EDGE_LOOP('',(#606,#629,#668,#694));
#606 = ORIENTED_EDGE('',*,*,#607,.F.);
#607 = EDGE_CURVE('',#608,#342,#610,.T.);
#608 = VERTEX_POINT('',#609);
#609 = CARTESIAN_POINT('',(1.55,-8.117691453624,0.));
#610 = SURFACE_CURVE('',#611,(#615,#622),.PCURVE_S1.);
#611 = LINE('',#612,#613);
#612 = CARTESIAN_POINT('',(1.55,-16.5,0.));
#613 = VECTOR('',#614,1.);
#614 = DIRECTION('',(0.,1.,0.));
#615 = PCURVE('',#360,#616);
#616 = DEFINITIONAL_REPRESENTATION('',(#617),#621);
#617 = LINE('',#618,#619);
#618 = CARTESIAN_POINT('',(-0.,0.));
#619 = VECTOR('',#620,1.);
#620 = DIRECTION('',(-0.,1.));
#621 = ( GEOMETRIC_REPRESENTATION_CONTEXT(2) 
PARAMETRIC_REPRESENTATION_CONTEXT() REPRESENTATION_CONTEXT('2D SPACE',''
  ) );
#622 = PCURVE('',#389,#623);
#623 = DEFINITIONAL_REPRESENTATION('',(#624),#628);
#624 = LINE('',#625,#626);
#625 = CARTESIAN_POINT('',(-6.28318530718,0.));
#626 = VECTOR('',#627,1.);
#627 = DIRECTION('',(-0.,1.));
#628 = ( GEOMETRIC_REPRESENTATION_CONTEXT(2) 
PARAMETRIC_REPRESENTATION_CONTEXT() REPRESENTATION_CONTEXT('2D SPACE',''
  ) );
#629 = ORIENTED_EDGE('',*,*,#630,.F.);
#630 = EDGE_CURVE('',#631,#608,#633,.T.);
#631 = VERTEX_POINT('',#632);
#632 = CARTESIAN_POINT('',(1.140175425099,-7.067691453624,1.05));
#633 = SURFACE_CURVE('',#634,(#639,#651),.PCURVE_S1.);
#634 = ELLIPSE('',#635,2.192031021678,1.55);
#635 = AXIS2_PLACEMENT_3D('',#636,#637,#638);
#636 = CARTESIAN_POINT('',(0.,-8.117691453624,0.));
#637 = DIRECTION('',(0.,0.707106781187,-0.707106781187));
#638 = DIRECTION('',(0.,0.707106781187,0.707106781187));
#639 = PCURVE('',#360,#640);
#640 = DEFINITIONAL_REPRESENTATION('',(#641),#650);
#641 = B_SPLINE_CURVE_WITH_KNOTS('',7,(#642,#643,#644,#645,#646,#647,
    #648,#649),.UNSPECIFIED.,.F.,.F.,(8,8),(0.,1.570796326794),
  .PIECEWISE_BEZIER_KNOTS.);
#642 = CARTESIAN_POINT('',(-1.570796326795,9.932308546376));
#643 = CARTESIAN_POINT('',(-1.346396851539,9.932308546376));
#644 = CARTESIAN_POINT('',(-1.121997376282,9.841248103831));
#645 = CARTESIAN_POINT('',(-0.897597901026,9.659140428544));
#646 = CARTESIAN_POINT('',(-0.67319842577,9.397166126327));
#647 = CARTESIAN_POINT('',(-0.448798950514,9.077945507322));
#648 = CARTESIAN_POINT('',(-0.224399475257,8.730127733025));
#649 = CARTESIAN_POINT('',(-1.10229E-12,8.382308546378));
#650 = ( GEOMETRIC_REPRESENTATION_CONTEXT(2) 
PARAMETRIC_REPRESENTATION_CONTEXT() REPRESENTATION_CONTEXT('2D SPACE',''
  ) );
#651 = PCURVE('',#652,#657);
#652 = CYLINDRICAL_SURFACE('',#653,1.55);
#653 = AXIS2_PLACEMENT_3D('',#654,#655,#656);
#654 = CARTESIAN_POINT('',(0.,-8.117691453624,0.));
#655 = DIRECTION('',(-0.,-0.,-1.));
#656 = DIRECTION('',(1.,0.,0.));
#657 = DEFINITIONAL_REPRESENTATION('',(#658),#667);
#658 = B_SPLINE_CURVE_WITH_KNOTS('',7,(#659,#660,#661,#662,#663,#664,
    #665,#666),.UNSPECIFIED.,.F.,.F.,(8,8),(0.,1.570796326794),
  .PIECEWISE_BEZIER_KNOTS.);
#659 = CARTESIAN_POINT('',(-1.570796326795,-1.55));
#660 = CARTESIAN_POINT('',(-1.346396851539,-1.55));
#661 = CARTESIAN_POINT('',(-1.121997376282,-1.458939557455));
#662 = CARTESIAN_POINT('',(-0.897597901027,-1.27683188217));
#663 = CARTESIAN_POINT('',(-0.67319842577,-1.01485757995));
#664 = CARTESIAN_POINT('',(-0.448798950514,-0.695636960946));
#665 = CARTESIAN_POINT('',(-0.224399475257,-0.347819186649));
#666 = CARTESIAN_POINT('',(-1.10249E-12,-1.70855E-12));
#667 = ( GEOMETRIC_REPRESENTATION_CONTEXT(2) 
PARAMETRIC_REPRESENTATION_CONTEXT() REPRESENTATION_CONTEXT('2D SPACE',''
  ) );
#668 = ORIENTED_EDGE('',*,*,#669,.F.);
#669 = EDGE_CURVE('',#344,#631,#670,.T.);
#670 = SURFACE_CURVE('',#671,(#675,#682),.PCURVE_S1.);
#671 = LINE('',#672,#673);
#672 = CARTESIAN_POINT('',(1.140175425099,-5.,1.05));
#673 = VECTOR('',#674,1.);
#674 = DIRECTION('',(0.,-1.,2.2E-16));
#675 = PCURVE('',#360,#676);
#676 = DEFINITIONAL_REPRESENTATION('',(#677),#681);
#677 = LINE('',#678,#679);
#678 = CARTESIAN_POINT('',(-0.744248709806,11.5));
#679 = VECTOR('',#680,1.);
#680 = DIRECTION('',(-0.,-1.));
#681 = ( GEOMETRIC_REPRESENTATION_CONTEXT(2) 
PARAMETRIC_REPRESENTATION_CONTEXT() REPRESENTATION_CONTEXT('2D SPACE',''
  ) );
#682 = PCURVE('',#683,#688);
#683 = PLANE('',#684);
#684 = AXIS2_PLACEMENT_3D('',#685,#686,#687);
#685 = CARTESIAN_POINT('',(1.140175425099,-5.,1.05));
#686 = DIRECTION('',(-0.,-2.2E-16,-1.));
#687 = DIRECTION('',(-1.,0.,0.));
#688 = DEFINITIONAL_REPRESENTATION('',(#689),#693);
#689 = LINE('',#690,#691);
#690 = CARTESIAN_POINT('',(0.,0.));
#691 = VECTOR('',#692,1.);
#692 = DIRECTION('',(0.,-1.));
#693 = ( GEOMETRIC_REPRESENTATION_CONTEXT(2) 
PARAMETRIC_REPRESENTATION_CONTEXT() REPRESENTATION_CONTEXT('2D SPACE',''
  ) );
#694 = ORIENTED_EDGE('',*,*,#341,.F.);
#695 = ADVANCED_FACE('',(#696),#389,.F.);
#696 = FACE_BOUND('',#697,.T.);
#697 = EDGE_LOOP('',(#698,#727,#748,#749,#750,#773,#807,#853,#881,#910,
    #933,#977));
#698 = ORIENTED_EDGE('',*,*,#699,.T.);
#699 = EDGE_CURVE('',#700,#700,#702,.T.);
#700 = VERTEX_POINT('',#701);
#701 = CARTESIAN_POINT('',(1.55,-16.5,0.));
#702 = SURFACE_CURVE('',#703,(#708,#715),.PCURVE_S1.);
#703 = CIRCLE('',#704,1.55);
#704 = AXIS2_PLACEMENT_3D('',#705,#706,#707);
#705 = CARTESIAN_POINT('',(0.,-16.5,0.));
#706 = DIRECTION('',(0.,-1.,0.));
#707 = DIRECTION('',(1.,0.,0.));
#708 = PCURVE('',#389,#709);
#709 = DEFINITIONAL_REPRESENTATION('',(#710),#714);
#710 = LINE('',#711,#712);
#711 = CARTESIAN_POINT('',(-0.,0.));
#712 = VECTOR('',#713,1.);
#713 = DIRECTION('',(-1.,0.));
#714 = ( GEOMETRIC_REPRESENTATION_CONTEXT(2) 
PARAMETRIC_REPRESENTATION_CONTEXT() REPRESENTATION_CONTEXT('2D SPACE',''
  ) );
#715 = PCURVE('',#716,#721);
#716 = PLANE('',#717);
#717 = AXIS2_PLACEMENT_3D('',#718,#719,#720);
#718 = CARTESIAN_POINT('',(0.,-16.5,0.));
#719 = DIRECTION('',(-0.,-1.,-0.));
#720 = DIRECTION('',(1.,0.,0.));
#721 = DEFINITIONAL_REPRESENTATION('',(#722),#726);
#722 = CIRCLE('',#723,1.55);
#723 = AXIS2_PLACEMENT_2D('',#724,#725);
#724 = CARTESIAN_POINT('',(0.,0.));
#725 = DIRECTION('',(1.,-0.));
#726 = ( GEOMETRIC_REPRESENTATION_CONTEXT(2) 
PARAMETRIC_REPRESENTATION_CONTEXT() REPRESENTATION_CONTEXT('2D SPACE',''
  ) );
#727 = ORIENTED_EDGE('',*,*,#728,.T.);
#728 = EDGE_CURVE('',#700,#608,#729,.T.);
#729 = SEAM_CURVE('',#730,(#734,#741),.PCURVE_S1.);
#730 = LINE('',#731,#732);
#731 = CARTESIAN_POINT('',(1.55,-16.5,0.));
#732 = VECTOR('',#733,1.);
#733 = DIRECTION('',(0.,1.,0.));
#734 = PCURVE('',#389,#735);
#735 = DEFINITIONAL_REPRESENTATION('',(#736),#740);
#736 = LINE('',#737,#738);
#737 = CARTESIAN_POINT('',(-0.,0.));
#738 = VECTOR('',#739,1.);
#739 = DIRECTION('',(-0.,1.));
#740 = ( GEOMETRIC_REPRESENTATION_CONTEXT(2) 
PARAMETRIC_REPRESENTATION_CONTEXT() REPRESENTATION_CONTEXT('2D SPACE',''
  ) );
#741 = PCURVE('',#389,#742);
#742 = DEFINITIONAL_REPRESENTATION('',(#743),#747);
#743 = LINE('',#744,#745);
#744 = CARTESIAN_POINT('',(-6.28318530718,0.));
#745 = VECTOR('',#746,1.);
#746 = DIRECTION('',(-0.,1.));
#747 = ( GEOMETRIC_REPRESENTATION_CONTEXT(2) 
PARAMETRIC_REPRESENTATION_CONTEXT() REPRESENTATION_CONTEXT('2D SPACE',''
  ) );
#748 = ORIENTED_EDGE('',*,*,#607,.T.);
#749 = ORIENTED_EDGE('',*,*,#372,.F.);
#750 = ORIENTED_EDGE('',*,*,#751,.T.);
#751 = EDGE_CURVE('',#373,#752,#754,.T.);
#752 = VERTEX_POINT('',#753);
#753 = CARTESIAN_POINT('',(-1.140175425099,-7.067691453624,1.05));
#754 = SURFACE_CURVE('',#755,(#759,#766),.PCURVE_S1.);
#755 = LINE('',#756,#757);
#756 = CARTESIAN_POINT('',(-1.140175425099,-5.,1.05));
#757 = VECTOR('',#758,1.);
#758 = DIRECTION('',(0.,-1.,2.2E-16));
#759 = PCURVE('',#389,#760);
#760 = DEFINITIONAL_REPRESENTATION('',(#761),#765);
#761 = LINE('',#762,#763);
#762 = CARTESIAN_POINT('',(-2.397343943784,11.5));
#763 = VECTOR('',#764,1.);
#764 = DIRECTION('',(-0.,-1.));
#765 = ( GEOMETRIC_REPRESENTATION_CONTEXT(2) 
PARAMETRIC_REPRESENTATION_CONTEXT() REPRESENTATION_CONTEXT('2D SPACE',''
  ) );
#766 = PCURVE('',#683,#767);
#767 = DEFINITIONAL_REPRESENTATION('',(#768),#772);
#768 = LINE('',#769,#770);
#769 = CARTESIAN_POINT('',(2.280350850198,0.));
#770 = VECTOR('',#771,1.);
#771 = DIRECTION('',(0.,-1.));
#772 = ( GEOMETRIC_REPRESENTATION_CONTEXT(2) 
PARAMETRIC_REPRESENTATION_CONTEXT() REPRESENTATION_CONTEXT('2D SPACE',''
  ) );
#773 = ORIENTED_EDGE('',*,*,#774,.F.);
#774 = EDGE_CURVE('',#775,#752,#777,.T.);
#775 = VERTEX_POINT('',#776);
#776 = CARTESIAN_POINT('',(-1.55,-8.117691423822,0.));
#777 = SURFACE_CURVE('',#778,(#783,#795),.PCURVE_S1.);
#778 = ELLIPSE('',#779,2.192031021678,1.55);
#779 = AXIS2_PLACEMENT_3D('',#780,#781,#782);
#780 = CARTESIAN_POINT('',(0.,-8.117691453624,0.));
#781 = DIRECTION('',(0.,0.707106781187,-0.707106781187));
#782 = DIRECTION('',(0.,0.707106781187,0.707106781187));
#783 = PCURVE('',#389,#784);
#784 = DEFINITIONAL_REPRESENTATION('',(#785),#794);
#785 = B_SPLINE_CURVE_WITH_KNOTS('',7,(#786,#787,#788,#789,#790,#791,
    #792,#793),.UNSPECIFIED.,.F.,.F.,(8,8),(4.712388980385,6.28318530718
    ),.PIECEWISE_BEZIER_KNOTS.);
#786 = CARTESIAN_POINT('',(-3.14159265359,8.382308546376));
#787 = CARTESIAN_POINT('',(-2.917193178333,8.730127733024));
#788 = CARTESIAN_POINT('',(-2.692793703077,9.07794550732));
#789 = CARTESIAN_POINT('',(-2.468394227821,9.397166126322));
#790 = CARTESIAN_POINT('',(-2.243994752564,9.659140428544));
#791 = CARTESIAN_POINT('',(-2.019595277308,9.841248103831));
#792 = CARTESIAN_POINT('',(-1.795195802051,9.932308546376));
#793 = CARTESIAN_POINT('',(-1.570796326795,9.932308546376));
#794 = ( GEOMETRIC_REPRESENTATION_CONTEXT(2) 
PARAMETRIC_REPRESENTATION_CONTEXT() REPRESENTATION_CONTEXT('2D SPACE',''
  ) );
#795 = PCURVE('',#652,#796);
#796 = DEFINITIONAL_REPRESENTATION('',(#797),#806);
#797 = B_SPLINE_CURVE_WITH_KNOTS('',7,(#798,#799,#800,#801,#802,#803,
    #804,#805),.UNSPECIFIED.,.F.,.F.,(8,8),(4.712388980385,6.28318530718
    ),.PIECEWISE_BEZIER_KNOTS.);
#798 = CARTESIAN_POINT('',(-3.14159265359,2.8E-16));
#799 = CARTESIAN_POINT('',(-2.917193178333,-0.347819186647));
#800 = CARTESIAN_POINT('',(-2.692793703077,-0.695636960945));
#801 = CARTESIAN_POINT('',(-2.46839422782,-1.014857579949));
#802 = CARTESIAN_POINT('',(-2.243994752564,-1.276831882169));
#803 = CARTESIAN_POINT('',(-2.019595277308,-1.458939557454));
#804 = CARTESIAN_POINT('',(-1.795195802051,-1.55));
#805 = CARTESIAN_POINT('',(-1.570796326795,-1.55));
#806 = ( GEOMETRIC_REPRESENTATION_CONTEXT(2) 
PARAMETRIC_REPRESENTATION_CONTEXT() REPRESENTATION_CONTEXT('2D SPACE',''
  ) );
#807 = ORIENTED_EDGE('',*,*,#808,.T.);
#808 = EDGE_CURVE('',#775,#809,#811,.T.);
#809 = VERTEX_POINT('',#810);
#810 = CARTESIAN_POINT('',(-1.140175425099,-9.167691453624,1.05));
#811 = SURFACE_CURVE('',#812,(#817,#835),.PCURVE_S1.);
#812 = ELLIPSE('',#813,2.192031021678,1.55);
#813 = AXIS2_PLACEMENT_3D('',#814,#815,#816);
#814 = CARTESIAN_POINT('',(0.,-8.117691453624,0.));
#815 = DIRECTION('',(0.,0.707106781187,0.707106781187));
#816 = DIRECTION('',(0.,0.707106781187,-0.707106781187));
#817 = PCURVE('',#389,#818);
#818 = DEFINITIONAL_REPRESENTATION('',(#819),#834);
#819 = B_SPLINE_CURVE_WITH_KNOTS('',7,(#820,#821,#822,#823,#824,#825,
    #826,#827,#828,#829,#830,#831,#832,#833),.UNSPECIFIED.,.F.,.F.,(8,6,
    8),(1.570796326796,3.14159265359,4.712388980384),.UNSPECIFIED.);
#820 = CARTESIAN_POINT('',(-3.141592653589,8.382308546374));
#821 = CARTESIAN_POINT('',(-2.917193178332,8.034489359727));
#822 = CARTESIAN_POINT('',(-2.692793703076,7.686671585429));
#823 = CARTESIAN_POINT('',(-2.468394227819,7.367450966431));
#824 = CARTESIAN_POINT('',(-2.243994752564,7.105476664206));
#825 = CARTESIAN_POINT('',(-2.019595277307,6.923368988923));
#826 = CARTESIAN_POINT('',(-1.795195802051,6.832308546376));
#827 = CARTESIAN_POINT('',(-1.346396851539,6.832308546376));
#828 = CARTESIAN_POINT('',(-1.121997376283,6.923368988921));
#829 = CARTESIAN_POINT('',(-0.897597901026,7.10547666421));
#830 = CARTESIAN_POINT('',(-0.67319842577,7.367450966423));
#831 = CARTESIAN_POINT('',(-0.448798950514,7.686671585432));
#832 = CARTESIAN_POINT('',(-0.224399475257,8.034489359727));
#833 = CARTESIAN_POINT('',(-1.10241E-12,8.382308546374));
#834 = ( GEOMETRIC_REPRESENTATION_CONTEXT(2) 
PARAMETRIC_REPRESENTATION_CONTEXT() REPRESENTATION_CONTEXT('2D SPACE',''
  ) );
#835 = PCURVE('',#652,#836);
#836 = DEFINITIONAL_REPRESENTATION('',(#837),#852);
#837 = B_SPLINE_CURVE_WITH_KNOTS('',7,(#838,#839,#840,#841,#842,#843,
    #844,#845,#846,#847,#848,#849,#850,#851),.UNSPECIFIED.,.F.,.F.,(8,6,
    8),(1.570796326796,3.14159265359,4.712388980384),.UNSPECIFIED.);
#838 = CARTESIAN_POINT('',(-3.141592653591,-1.70802E-12));
#839 = CARTESIAN_POINT('',(-3.365992128847,-0.347819186649));
#840 = CARTESIAN_POINT('',(-3.590391604104,-0.695636960946));
#841 = CARTESIAN_POINT('',(-3.814791079358,-1.01485757995));
#842 = CARTESIAN_POINT('',(-4.039190554618,-1.27683188217));
#843 = CARTESIAN_POINT('',(-4.263590029872,-1.458939557455));
#844 = CARTESIAN_POINT('',(-4.487989505128,-1.55));
#845 = CARTESIAN_POINT('',(-4.936788455641,-1.55));
#846 = CARTESIAN_POINT('',(-5.161187930897,-1.458939557455));
#847 = CARTESIAN_POINT('',(-5.385587406156,-1.27683188217));
#848 = CARTESIAN_POINT('',(-5.609986881409,-1.01485757995));
#849 = CARTESIAN_POINT('',(-5.834386356666,-0.695636960946));
#850 = CARTESIAN_POINT('',(-6.058785831922,-0.347819186649));
#851 = CARTESIAN_POINT('',(-6.283185307178,-1.70874E-12));
#852 = ( GEOMETRIC_REPRESENTATION_CONTEXT(2) 
PARAMETRIC_REPRESENTATION_CONTEXT() REPRESENTATION_CONTEXT('2D SPACE',''
  ) );
#853 = ORIENTED_EDGE('',*,*,#854,.T.);
#854 = EDGE_CURVE('',#809,#855,#857,.T.);
#855 = VERTEX_POINT('',#856);
#856 = CARTESIAN_POINT('',(-1.140175425099,-16.,1.05));
#857 = SURFACE_CURVE('',#858,(#862,#869),.PCURVE_S1.);
#858 = LINE('',#859,#860);
#859 = CARTESIAN_POINT('',(-1.140175425099,-5.,1.05));
#860 = VECTOR('',#861,1.);
#861 = DIRECTION('',(0.,-1.,2.2E-16));
#862 = PCURVE('',#389,#863);
#863 = DEFINITIONAL_REPRESENTATION('',(#864),#868);
#864 = LINE('',#865,#866);
#865 = CARTESIAN_POINT('',(-2.397343943784,11.5));
#866 = VECTOR('',#867,1.);
#867 = DIRECTION('',(-0.,-1.));
#868 = ( GEOMETRIC_REPRESENTATION_CONTEXT(2) 
PARAMETRIC_REPRESENTATION_CONTEXT() REPRESENTATION_CONTEXT('2D SPACE',''
  ) );
#869 = PCURVE('',#870,#875);
#870 = PLANE('',#871);
#871 = AXIS2_PLACEMENT_3D('',#872,#873,#874);
#872 = CARTESIAN_POINT('',(1.140175425099,-5.,1.05));
#873 = DIRECTION('',(-0.,-2.2E-16,-1.));
#874 = DIRECTION('',(-1.,0.,0.));
#875 = DEFINITIONAL_REPRESENTATION('',(#876),#880);
#876 = LINE('',#877,#878);
#877 = CARTESIAN_POINT('',(2.280350850198,0.));
#878 = VECTOR('',#879,1.);
#879 = DIRECTION('',(0.,-1.));
#880 = ( GEOMETRIC_REPRESENTATION_CONTEXT(2) 
PARAMETRIC_REPRESENTATION_CONTEXT() REPRESENTATION_CONTEXT('2D SPACE',''
  ) );
#881 = ORIENTED_EDGE('',*,*,#882,.T.);
#882 = EDGE_CURVE('',#855,#883,#885,.T.);
#883 = VERTEX_POINT('',#884);
#884 = CARTESIAN_POINT('',(1.140175425099,-16.,1.05));
#885 = SURFACE_CURVE('',#886,(#891,#898),.PCURVE_S1.);
#886 = CIRCLE('',#887,1.55);
#887 = AXIS2_PLACEMENT_3D('',#888,#889,#890);
#888 = CARTESIAN_POINT('',(0.,-16.,2.E-15));
#889 = DIRECTION('',(0.,1.,-0.));
#890 = DIRECTION('',(-1.,0.,0.));
#891 = PCURVE('',#389,#892);
#892 = DEFINITIONAL_REPRESENTATION('',(#893),#897);
#893 = LINE('',#894,#895);
#894 = CARTESIAN_POINT('',(-3.14159265359,0.5));
#895 = VECTOR('',#896,1.);
#896 = DIRECTION('',(1.,-0.));
#897 = ( GEOMETRIC_REPRESENTATION_CONTEXT(2) 
PARAMETRIC_REPRESENTATION_CONTEXT() REPRESENTATION_CONTEXT('2D SPACE',''
  ) );
#898 = PCURVE('',#899,#904);
#899 = PLANE('',#900);
#900 = AXIS2_PLACEMENT_3D('',#901,#902,#903);
#901 = CARTESIAN_POINT('',(2.7E-16,-16.,1.204819103556));
#902 = DIRECTION('',(0.,1.,0.));
#903 = DIRECTION('',(0.,0.,1.));
#904 = DEFINITIONAL_REPRESENTATION('',(#905),#909);
#905 = CIRCLE('',#906,1.55);
#906 = AXIS2_PLACEMENT_2D('',#907,#908);
#907 = CARTESIAN_POINT('',(-1.204819103556,-2.7E-16));
#908 = DIRECTION('',(0.,-1.));
#909 = ( GEOMETRIC_REPRESENTATION_CONTEXT(2) 
PARAMETRIC_REPRESENTATION_CONTEXT() REPRESENTATION_CONTEXT('2D SPACE',''
  ) );
#910 = ORIENTED_EDGE('',*,*,#911,.F.);
#911 = EDGE_CURVE('',#912,#883,#914,.T.);
#912 = VERTEX_POINT('',#913);
#913 = CARTESIAN_POINT('',(1.140175425099,-9.167691453624,1.05));
#914 = SURFACE_CURVE('',#915,(#919,#926),.PCURVE_S1.);
#915 = LINE('',#916,#917);
#916 = CARTESIAN_POINT('',(1.140175425099,-5.,1.05));
#917 = VECTOR('',#918,1.);
#918 = DIRECTION('',(0.,-1.,2.2E-16));
#919 = PCURVE('',#389,#920);
#920 = DEFINITIONAL_REPRESENTATION('',(#921),#925);
#921 = LINE('',#922,#923);
#922 = CARTESIAN_POINT('',(-0.744248709806,11.5));
#923 = VECTOR('',#924,1.);
#924 = DIRECTION('',(-0.,-1.));
#925 = ( GEOMETRIC_REPRESENTATION_CONTEXT(2) 
PARAMETRIC_REPRESENTATION_CONTEXT() REPRESENTATION_CONTEXT('2D SPACE',''
  ) );
#926 = PCURVE('',#870,#927);
#927 = DEFINITIONAL_REPRESENTATION('',(#928),#932);
#928 = LINE('',#929,#930);
#929 = CARTESIAN_POINT('',(0.,0.));
#930 = VECTOR('',#931,1.);
#931 = DIRECTION('',(0.,-1.));
#932 = ( GEOMETRIC_REPRESENTATION_CONTEXT(2) 
PARAMETRIC_REPRESENTATION_CONTEXT() REPRESENTATION_CONTEXT('2D SPACE',''
  ) );
#933 = ORIENTED_EDGE('',*,*,#934,.T.);
#934 = EDGE_CURVE('',#912,#608,#935,.T.);
#935 = SURFACE_CURVE('',#936,(#941,#959),.PCURVE_S1.);
#936 = ELLIPSE('',#937,2.192031021678,1.55);
#937 = AXIS2_PLACEMENT_3D('',#938,#939,#940);
#938 = CARTESIAN_POINT('',(0.,-8.117691453624,0.));
#939 = DIRECTION('',(0.,0.707106781187,0.707106781187));
#940 = DIRECTION('',(0.,0.707106781187,-0.707106781187));
#941 = PCURVE('',#389,#942);
#942 = DEFINITIONAL_REPRESENTATION('',(#943),#958);
#943 = B_SPLINE_CURVE_WITH_KNOTS('',7,(#944,#945,#946,#947,#948,#949,
    #950,#951,#952,#953,#954,#955,#956,#957),.UNSPECIFIED.,.F.,.F.,(8,6,
    8),(1.570796326796,3.14159265359,4.712388980384),.UNSPECIFIED.);
#944 = CARTESIAN_POINT('',(-3.141592653589,8.382308546374));
#945 = CARTESIAN_POINT('',(-2.917193178332,8.034489359727));
#946 = CARTESIAN_POINT('',(-2.692793703076,7.686671585429));
#947 = CARTESIAN_POINT('',(-2.468394227819,7.367450966431));
#948 = CARTESIAN_POINT('',(-2.243994752564,7.105476664206));
#949 = CARTESIAN_POINT('',(-2.019595277307,6.923368988923));
#950 = CARTESIAN_POINT('',(-1.795195802051,6.832308546376));
#951 = CARTESIAN_POINT('',(-1.346396851539,6.832308546376));
#952 = CARTESIAN_POINT('',(-1.121997376283,6.923368988921));
#953 = CARTESIAN_POINT('',(-0.897597901026,7.10547666421));
#954 = CARTESIAN_POINT('',(-0.67319842577,7.367450966423));
#955 = CARTESIAN_POINT('',(-0.448798950514,7.686671585432));
#956 = CARTESIAN_POINT('',(-0.224399475257,8.034489359727));
#957 = CARTESIAN_POINT('',(-1.10241E-12,8.382308546374));
#958 = ( GEOMETRIC_REPRESENTATION_CONTEXT(2) 
PARAMETRIC_REPRESENTATION_CONTEXT() REPRESENTATION_CONTEXT('2D SPACE',''
  ) );
#959 = PCURVE('',#652,#960);
#960 = DEFINITIONAL_REPRESENTATION('',(#961),#976);
#961 = B_SPLINE_CURVE_WITH_KNOTS('',7,(#962,#963,#964,#965,#966,#967,
    #968,#969,#970,#971,#972,#973,#974,#975),.UNSPECIFIED.,.F.,.F.,(8,6,
    8),(1.570796326796,3.14159265359,4.712388980384),.UNSPECIFIED.);
#962 = CARTESIAN_POINT('',(-3.141592653591,-1.70802E-12));
#963 = CARTESIAN_POINT('',(-3.365992128847,-0.347819186649));
#964 = CARTESIAN_POINT('',(-3.590391604104,-0.695636960946));
#965 = CARTESIAN_POINT('',(-3.814791079358,-1.01485757995));
#966 = CARTESIAN_POINT('',(-4.039190554618,-1.27683188217));
#967 = CARTESIAN_POINT('',(-4.263590029872,-1.458939557455));
#968 = CARTESIAN_POINT('',(-4.487989505128,-1.55));
#969 = CARTESIAN_POINT('',(-4.936788455641,-1.55));
#970 = CARTESIAN_POINT('',(-5.161187930897,-1.458939557455));
#971 = CARTESIAN_POINT('',(-5.385587406156,-1.27683188217));
#972 = CARTESIAN_POINT('',(-5.609986881409,-1.01485757995));
#973 = CARTESIAN_POINT('',(-5.834386356666,-0.695636960946));
#974 = CARTESIAN_POINT('',(-6.058785831922,-0.347819186649));
#975 = CARTESIAN_POINT('',(-6.283185307178,-1.70874E-12));
#976 = ( GEOMETRIC_REPRESENTATION_CONTEXT(2) 
PARAMETRIC_REPRESENTATION_CONTEXT() REPRESENTATION_CONTEXT('2D SPACE',''
  ) );
#977 = ORIENTED_EDGE('',*,*,#728,.F.);
#978 = ADVANCED_FACE('',(#979),#416,.T.);
#979 = FACE_BOUND('',#980,.T.);
#980 = EDGE_LOOP('',(#981,#1002));
#981 = ORIENTED_EDGE('',*,*,#982,.T.);
#982 = EDGE_CURVE('',#344,#373,#983,.T.);
#983 = SURFACE_CURVE('',#984,(#988,#995),.PCURVE_S1.);
#984 = LINE('',#985,#986);
#985 = CARTESIAN_POINT('',(1.140175425099,-5.,1.05));
#986 = VECTOR('',#987,1.);
#987 = DIRECTION('',(-1.,0.,0.));
#988 = PCURVE('',#416,#989);
#989 = DEFINITIONAL_REPRESENTATION('',(#990),#994);
#990 = LINE('',#991,#992);
#991 = CARTESIAN_POINT('',(-0.154819103556,1.140175425099));
#992 = VECTOR('',#993,1.);
#993 = DIRECTION('',(0.,-1.));
#994 = ( GEOMETRIC_REPRESENTATION_CONTEXT(2) 
PARAMETRIC_REPRESENTATION_CONTEXT() REPRESENTATION_CONTEXT('2D SPACE',''
  ) );
#995 = PCURVE('',#683,#996);
#996 = DEFINITIONAL_REPRESENTATION('',(#997),#1001);
#997 = LINE('',#998,#999);
#998 = CARTESIAN_POINT('',(0.,0.));
#999 = VECTOR('',#1000,1.);
#1000 = DIRECTION('',(1.,0.));
#1001 = ( GEOMETRIC_REPRESENTATION_CONTEXT(2) 
PARAMETRIC_REPRESENTATION_CONTEXT() REPRESENTATION_CONTEXT('2D SPACE',''
  ) );
#1002 = ORIENTED_EDGE('',*,*,#401,.F.);
#1003 = ADVANCED_FACE('',(#1004,#1079),#452,.F.);
#1004 = FACE_BOUND('',#1005,.F.);
#1005 = EDGE_LOOP('',(#1006,#1029,#1057,#1078));
#1006 = ORIENTED_EDGE('',*,*,#1007,.T.);
#1007 = EDGE_CURVE('',#435,#1008,#1010,.T.);
#1008 = VERTEX_POINT('',#1009);
#1009 = CARTESIAN_POINT('',(-2.75,-11.6,4.6));
#1010 = SURFACE_CURVE('',#1011,(#1015,#1022),.PCURVE_S1.);
#1011 = LINE('',#1012,#1013);
#1012 = CARTESIAN_POINT('',(-2.75,-5.,4.6));
#1013 = VECTOR('',#1014,1.);
#1014 = DIRECTION('',(0.,-1.,2.2E-16));
#1015 = PCURVE('',#452,#1016);
#1016 = DEFINITIONAL_REPRESENTATION('',(#1017),#1021);
#1017 = LINE('',#1018,#1019);
#1018 = CARTESIAN_POINT('',(0.,0.));
#1019 = VECTOR('',#1020,1.);
#1020 = DIRECTION('',(0.,-1.));
#1021 = ( GEOMETRIC_REPRESENTATION_CONTEXT(2) 
PARAMETRIC_REPRESENTATION_CONTEXT() REPRESENTATION_CONTEXT('2D SPACE',''
  ) );
#1022 = PCURVE('',#534,#1023);
#1023 = DEFINITIONAL_REPRESENTATION('',(#1024),#1028);
#1024 = LINE('',#1025,#1026);
#1025 = CARTESIAN_POINT('',(2.6,3.161784197001E-16));
#1026 = VECTOR('',#1027,1.);
#1027 = DIRECTION('',(0.,-1.));
#1028 = ( GEOMETRIC_REPRESENTATION_CONTEXT(2) 
PARAMETRIC_REPRESENTATION_CONTEXT() REPRESENTATION_CONTEXT('2D SPACE',''
  ) );
#1029 = ORIENTED_EDGE('',*,*,#1030,.T.);
#1030 = EDGE_CURVE('',#1008,#1031,#1033,.T.);
#1031 = VERTEX_POINT('',#1032);
#1032 = CARTESIAN_POINT('',(2.75,-11.6,4.6));
#1033 = SURFACE_CURVE('',#1034,(#1038,#1045),.PCURVE_S1.);
#1034 = LINE('',#1035,#1036);
#1035 = CARTESIAN_POINT('',(-2.75,-11.6,4.6));
#1036 = VECTOR('',#1037,1.);
#1037 = DIRECTION('',(1.,0.,0.));
#1038 = PCURVE('',#452,#1039);
#1039 = DEFINITIONAL_REPRESENTATION('',(#1040),#1044);
#1040 = LINE('',#1041,#1042);
#1041 = CARTESIAN_POINT('',(0.,-6.6));
#1042 = VECTOR('',#1043,1.);
#1043 = DIRECTION('',(1.,0.));
#1044 = ( GEOMETRIC_REPRESENTATION_CONTEXT(2) 
PARAMETRIC_REPRESENTATION_CONTEXT() REPRESENTATION_CONTEXT('2D SPACE',''
  ) );
#1045 = PCURVE('',#1046,#1051);
#1046 = PLANE('',#1047);
#1047 = AXIS2_PLACEMENT_3D('',#1048,#1049,#1050);
#1048 = CARTESIAN_POINT('',(0.,-11.6,3.3));
#1049 = DIRECTION('',(0.,1.,-3.4E-16));
#1050 = DIRECTION('',(0.,3.4E-16,1.));
#1051 = DEFINITIONAL_REPRESENTATION('',(#1052),#1056);
#1052 = LINE('',#1053,#1054);
#1053 = CARTESIAN_POINT('',(1.3,-2.75));
#1054 = VECTOR('',#1055,1.);
#1055 = DIRECTION('',(0.,1.));
#1056 = ( GEOMETRIC_REPRESENTATION_CONTEXT(2) 
PARAMETRIC_REPRESENTATION_CONTEXT() REPRESENTATION_CONTEXT('2D SPACE',''
  ) );
#1057 = ORIENTED_EDGE('',*,*,#1058,.F.);
#1058 = EDGE_CURVE('',#437,#1031,#1059,.T.);
#1059 = SURFACE_CURVE('',#1060,(#1064,#1071),.PCURVE_S1.);
#1060 = LINE('',#1061,#1062);
#1061 = CARTESIAN_POINT('',(2.75,-5.,4.6));
#1062 = VECTOR('',#1063,1.);
#1063 = DIRECTION('',(0.,-1.,2.2E-16));
#1064 = PCURVE('',#452,#1065);
#1065 = DEFINITIONAL_REPRESENTATION('',(#1066),#1070);
#1066 = LINE('',#1067,#1068);
#1067 = CARTESIAN_POINT('',(5.5,0.));
#1068 = VECTOR('',#1069,1.);
#1069 = DIRECTION('',(0.,-1.));
#1070 = ( GEOMETRIC_REPRESENTATION_CONTEXT(2) 
PARAMETRIC_REPRESENTATION_CONTEXT() REPRESENTATION_CONTEXT('2D SPACE',''
  ) );
#1071 = PCURVE('',#480,#1072);
#1072 = DEFINITIONAL_REPRESENTATION('',(#1073),#1077);
#1073 = LINE('',#1074,#1075);
#1074 = CARTESIAN_POINT('',(0.,0.));
#1075 = VECTOR('',#1076,1.);
#1076 = DIRECTION('',(0.,-1.));
#1077 = ( GEOMETRIC_REPRESENTATION_CONTEXT(2) 
PARAMETRIC_REPRESENTATION_CONTEXT() REPRESENTATION_CONTEXT('2D SPACE',''
  ) );
#1078 = ORIENTED_EDGE('',*,*,#434,.F.);
#1079 = FACE_BOUND('',#1080,.F.);
#1080 = EDGE_LOOP('',(#1081));
#1081 = ORIENTED_EDGE('',*,*,#549,.T.);
#1082 = ADVANCED_FACE('',(#1083),#534,.F.);
#1083 = FACE_BOUND('',#1084,.F.);
#1084 = EDGE_LOOP('',(#1085,#1108,#1129,#1130));
#1085 = ORIENTED_EDGE('',*,*,#1086,.T.);
#1086 = EDGE_CURVE('',#493,#1087,#1089,.T.);
#1087 = VERTEX_POINT('',#1088);
#1088 = CARTESIAN_POINT('',(-2.75,-11.6,2.));
#1089 = SURFACE_CURVE('',#1090,(#1094,#1101),.PCURVE_S1.);
#1090 = LINE('',#1091,#1092);
#1091 = CARTESIAN_POINT('',(-2.75,-5.,2.));
#1092 = VECTOR('',#1093,1.);
#1093 = DIRECTION('',(0.,-1.,2.2E-16));
#1094 = PCURVE('',#534,#1095);
#1095 = DEFINITIONAL_REPRESENTATION('',(#1096),#1100);
#1096 = LINE('',#1097,#1098);
#1097 = CARTESIAN_POINT('',(0.,0.));
#1098 = VECTOR('',#1099,1.);
#1099 = DIRECTION('',(0.,-1.));
#1100 = ( GEOMETRIC_REPRESENTATION_CONTEXT(2) 
PARAMETRIC_REPRESENTATION_CONTEXT() REPRESENTATION_CONTEXT('2D SPACE',''
  ) );
#1101 = PCURVE('',#508,#1102);
#1102 = DEFINITIONAL_REPRESENTATION('',(#1103),#1107);
#1103 = LINE('',#1104,#1105);
#1104 = CARTESIAN_POINT('',(5.5,0.));
#1105 = VECTOR('',#1106,1.);
#1106 = DIRECTION('',(0.,-1.));
#1107 = ( GEOMETRIC_REPRESENTATION_CONTEXT(2) 
PARAMETRIC_REPRESENTATION_CONTEXT() REPRESENTATION_CONTEXT('2D SPACE',''
  ) );
#1108 = ORIENTED_EDGE('',*,*,#1109,.T.);
#1109 = EDGE_CURVE('',#1087,#1008,#1110,.T.);
#1110 = SURFACE_CURVE('',#1111,(#1115,#1122),.PCURVE_S1.);
#1111 = LINE('',#1112,#1113);
#1112 = CARTESIAN_POINT('',(-2.75,-11.6,2.));
#1113 = VECTOR('',#1114,1.);
#1114 = DIRECTION('',(0.,0.,1.));
#1115 = PCURVE('',#534,#1116);
#1116 = DEFINITIONAL_REPRESENTATION('',(#1117),#1121);
#1117 = LINE('',#1118,#1119);
#1118 = CARTESIAN_POINT('',(-5.638215802999E-16,-6.6));
#1119 = VECTOR('',#1120,1.);
#1120 = DIRECTION('',(1.,-2.2E-16));
#1121 = ( GEOMETRIC_REPRESENTATION_CONTEXT(2) 
PARAMETRIC_REPRESENTATION_CONTEXT() REPRESENTATION_CONTEXT('2D SPACE',''
  ) );
#1122 = PCURVE('',#1046,#1123);
#1123 = DEFINITIONAL_REPRESENTATION('',(#1124),#1128);
#1124 = LINE('',#1125,#1126);
#1125 = CARTESIAN_POINT('',(-1.3,-2.75));
#1126 = VECTOR('',#1127,1.);
#1127 = DIRECTION('',(1.,0.));
#1128 = ( GEOMETRIC_REPRESENTATION_CONTEXT(2) 
PARAMETRIC_REPRESENTATION_CONTEXT() REPRESENTATION_CONTEXT('2D SPACE',''
  ) );
#1129 = ORIENTED_EDGE('',*,*,#1007,.F.);
#1130 = ORIENTED_EDGE('',*,*,#520,.F.);
#1131 = ADVANCED_FACE('',(#1132,#1180),#508,.F.);
#1132 = FACE_BOUND('',#1133,.F.);
#1133 = EDGE_LOOP('',(#1134,#1157,#1178,#1179));
#1134 = ORIENTED_EDGE('',*,*,#1135,.T.);
#1135 = EDGE_CURVE('',#465,#1136,#1138,.T.);
#1136 = VERTEX_POINT('',#1137);
#1137 = CARTESIAN_POINT('',(2.75,-11.6,2.));
#1138 = SURFACE_CURVE('',#1139,(#1143,#1150),.PCURVE_S1.);
#1139 = LINE('',#1140,#1141);
#1140 = CARTESIAN_POINT('',(2.75,-5.,2.));
#1141 = VECTOR('',#1142,1.);
#1142 = DIRECTION('',(0.,-1.,2.2E-16));
#1143 = PCURVE('',#508,#1144);
#1144 = DEFINITIONAL_REPRESENTATION('',(#1145),#1149);
#1145 = LINE('',#1146,#1147);
#1146 = CARTESIAN_POINT('',(0.,0.));
#1147 = VECTOR('',#1148,1.);
#1148 = DIRECTION('',(0.,-1.));
#1149 = ( GEOMETRIC_REPRESENTATION_CONTEXT(2) 
PARAMETRIC_REPRESENTATION_CONTEXT() REPRESENTATION_CONTEXT('2D SPACE',''
  ) );
#1150 = PCURVE('',#480,#1151);
#1151 = DEFINITIONAL_REPRESENTATION('',(#1152),#1156);
#1152 = LINE('',#1153,#1154);
#1153 = CARTESIAN_POINT('',(2.6,-3.161784197001E-16));
#1154 = VECTOR('',#1155,1.);
#1155 = DIRECTION('',(0.,-1.));
#1156 = ( GEOMETRIC_REPRESENTATION_CONTEXT(2) 
PARAMETRIC_REPRESENTATION_CONTEXT() REPRESENTATION_CONTEXT('2D SPACE',''
  ) );
#1157 = ORIENTED_EDGE('',*,*,#1158,.T.);
#1158 = EDGE_CURVE('',#1136,#1087,#1159,.T.);
#1159 = SURFACE_CURVE('',#1160,(#1164,#1171),.PCURVE_S1.);
#1160 = LINE('',#1161,#1162);
#1161 = CARTESIAN_POINT('',(2.75,-11.6,2.));
#1162 = VECTOR('',#1163,1.);
#1163 = DIRECTION('',(-1.,0.,0.));
#1164 = PCURVE('',#508,#1165);
#1165 = DEFINITIONAL_REPRESENTATION('',(#1166),#1170);
#1166 = LINE('',#1167,#1168);
#1167 = CARTESIAN_POINT('',(0.,-6.6));
#1168 = VECTOR('',#1169,1.);
#1169 = DIRECTION('',(1.,0.));
#1170 = ( GEOMETRIC_REPRESENTATION_CONTEXT(2) 
PARAMETRIC_REPRESENTATION_CONTEXT() REPRESENTATION_CONTEXT('2D SPACE',''
  ) );
#1171 = PCURVE('',#1046,#1172);
#1172 = DEFINITIONAL_REPRESENTATION('',(#1173),#1177);
#1173 = LINE('',#1174,#1175);
#1174 = CARTESIAN_POINT('',(-1.3,2.75));
#1175 = VECTOR('',#1176,1.);
#1176 = DIRECTION('',(0.,-1.));
#1177 = ( GEOMETRIC_REPRESENTATION_CONTEXT(2) 
PARAMETRIC_REPRESENTATION_CONTEXT() REPRESENTATION_CONTEXT('2D SPACE',''
  ) );
#1178 = ORIENTED_EDGE('',*,*,#1086,.F.);
#1179 = ORIENTED_EDGE('',*,*,#492,.F.);
#1180 = FACE_BOUND('',#1181,.F.);
#1181 = EDGE_LOOP('',(#1182));
#1182 = ORIENTED_EDGE('',*,*,#1183,.F.);
#1183 = EDGE_CURVE('',#1184,#1184,#1186,.T.);
#1184 = VERTEX_POINT('',#1185);
#1185 = CARTESIAN_POINT('',(1.55,-8.117691453624,2.));
#1186 = SURFACE_CURVE('',#1187,(#1192,#1199),.PCURVE_S1.);
#1187 = CIRCLE('',#1188,1.55);
#1188 = AXIS2_PLACEMENT_3D('',#1189,#1190,#1191);
#1189 = CARTESIAN_POINT('',(0.,-8.117691453624,2.));
#1190 = DIRECTION('',(0.,0.,-1.));
#1191 = DIRECTION('',(1.,0.,0.));
#1192 = PCURVE('',#508,#1193);
#1193 = DEFINITIONAL_REPRESENTATION('',(#1194),#1198);
#1194 = CIRCLE('',#1195,1.55);
#1195 = AXIS2_PLACEMENT_2D('',#1196,#1197);
#1196 = CARTESIAN_POINT('',(2.75,-3.117691453624));
#1197 = DIRECTION('',(-1.,0.));
#1198 = ( GEOMETRIC_REPRESENTATION_CONTEXT(2) 
PARAMETRIC_REPRESENTATION_CONTEXT() REPRESENTATION_CONTEXT('2D SPACE',''
  ) );
#1199 = PCURVE('',#652,#1200);
#1200 = DEFINITIONAL_REPRESENTATION('',(#1201),#1205);
#1201 = LINE('',#1202,#1203);
#1202 = CARTESIAN_POINT('',(-6.28318530718,-2.));
#1203 = VECTOR('',#1204,1.);
#1204 = DIRECTION('',(1.,-0.));
#1205 = ( GEOMETRIC_REPRESENTATION_CONTEXT(2) 
PARAMETRIC_REPRESENTATION_CONTEXT() REPRESENTATION_CONTEXT('2D SPACE',''
  ) );
#1206 = ADVANCED_FACE('',(#1207),#480,.F.);
#1207 = FACE_BOUND('',#1208,.F.);
#1208 = EDGE_LOOP('',(#1209,#1210,#1231,#1232));
#1209 = ORIENTED_EDGE('',*,*,#1058,.T.);
#1210 = ORIENTED_EDGE('',*,*,#1211,.T.);
#1211 = EDGE_CURVE('',#1031,#1136,#1212,.T.);
#1212 = SURFACE_CURVE('',#1213,(#1217,#1224),.PCURVE_S1.);
#1213 = LINE('',#1214,#1215);
#1214 = CARTESIAN_POINT('',(2.75,-11.6,4.6));
#1215 = VECTOR('',#1216,1.);
#1216 = DIRECTION('',(0.,0.,-1.));
#1217 = PCURVE('',#480,#1218);
#1218 = DEFINITIONAL_REPRESENTATION('',(#1219),#1223);
#1219 = LINE('',#1220,#1221);
#1220 = CARTESIAN_POINT('',(5.638215802999E-16,-6.6));
#1221 = VECTOR('',#1222,1.);
#1222 = DIRECTION('',(1.,2.2E-16));
#1223 = ( GEOMETRIC_REPRESENTATION_CONTEXT(2) 
PARAMETRIC_REPRESENTATION_CONTEXT() REPRESENTATION_CONTEXT('2D SPACE',''
  ) );
#1224 = PCURVE('',#1046,#1225);
#1225 = DEFINITIONAL_REPRESENTATION('',(#1226),#1230);
#1226 = LINE('',#1227,#1228);
#1227 = CARTESIAN_POINT('',(1.3,2.75));
#1228 = VECTOR('',#1229,1.);
#1229 = DIRECTION('',(-1.,0.));
#1230 = ( GEOMETRIC_REPRESENTATION_CONTEXT(2) 
PARAMETRIC_REPRESENTATION_CONTEXT() REPRESENTATION_CONTEXT('2D SPACE',''
  ) );
#1231 = ORIENTED_EDGE('',*,*,#1135,.F.);
#1232 = ORIENTED_EDGE('',*,*,#464,.F.);
#1233 = ADVANCED_FACE('',(#1234),#683,.T.);
#1234 = FACE_BOUND('',#1235,.T.);
#1235 = EDGE_LOOP('',(#1236,#1237,#1238,#1260));
#1236 = ORIENTED_EDGE('',*,*,#982,.F.);
#1237 = ORIENTED_EDGE('',*,*,#669,.T.);
#1238 = ORIENTED_EDGE('',*,*,#1239,.F.);
#1239 = EDGE_CURVE('',#752,#631,#1240,.T.);
#1240 = SURFACE_CURVE('',#1241,(#1246,#1253),.PCURVE_S1.);
#1241 = CIRCLE('',#1242,1.55);
#1242 = AXIS2_PLACEMENT_3D('',#1243,#1244,#1245);
#1243 = CARTESIAN_POINT('',(0.,-8.117691453624,1.05));
#1244 = DIRECTION('',(0.,0.,-1.));
#1245 = DIRECTION('',(1.,0.,0.));
#1246 = PCURVE('',#683,#1247);
#1247 = DEFINITIONAL_REPRESENTATION('',(#1248),#1252);
#1248 = CIRCLE('',#1249,1.55);
#1249 = AXIS2_PLACEMENT_2D('',#1250,#1251);
#1250 = CARTESIAN_POINT('',(1.140175425099,-3.117691453624));
#1251 = DIRECTION('',(-1.,0.));
#1252 = ( GEOMETRIC_REPRESENTATION_CONTEXT(2) 
PARAMETRIC_REPRESENTATION_CONTEXT() REPRESENTATION_CONTEXT('2D SPACE',''
  ) );
#1253 = PCURVE('',#652,#1254);
#1254 = DEFINITIONAL_REPRESENTATION('',(#1255),#1259);
#1255 = LINE('',#1256,#1257);
#1256 = CARTESIAN_POINT('',(-6.28318530718,-1.05));
#1257 = VECTOR('',#1258,1.);
#1258 = DIRECTION('',(1.,-0.));
#1259 = ( GEOMETRIC_REPRESENTATION_CONTEXT(2) 
PARAMETRIC_REPRESENTATION_CONTEXT() REPRESENTATION_CONTEXT('2D SPACE',''
  ) );
#1260 = ORIENTED_EDGE('',*,*,#751,.F.);
#1261 = ADVANCED_FACE('',(#1262),#652,.F.);
#1262 = FACE_BOUND('',#1263,.T.);
#1263 = EDGE_LOOP('',(#1264,#1265,#1266,#1287,#1288,#1289,#1290,#1312,
    #1313));
#1264 = ORIENTED_EDGE('',*,*,#1239,.T.);
#1265 = ORIENTED_EDGE('',*,*,#630,.T.);
#1266 = ORIENTED_EDGE('',*,*,#1267,.T.);
#1267 = EDGE_CURVE('',#608,#1184,#1268,.T.);
#1268 = SEAM_CURVE('',#1269,(#1273,#1280),.PCURVE_S1.);
#1269 = LINE('',#1270,#1271);
#1270 = CARTESIAN_POINT('',(1.55,-8.117691453624,0.));
#1271 = VECTOR('',#1272,1.);
#1272 = DIRECTION('',(0.,0.,1.));
#1273 = PCURVE('',#652,#1274);
#1274 = DEFINITIONAL_REPRESENTATION('',(#1275),#1279);
#1275 = LINE('',#1276,#1277);
#1276 = CARTESIAN_POINT('',(-6.28318530718,0.));
#1277 = VECTOR('',#1278,1.);
#1278 = DIRECTION('',(-0.,-1.));
#1279 = ( GEOMETRIC_REPRESENTATION_CONTEXT(2) 
PARAMETRIC_REPRESENTATION_CONTEXT() REPRESENTATION_CONTEXT('2D SPACE',''
  ) );
#1280 = PCURVE('',#652,#1281);
#1281 = DEFINITIONAL_REPRESENTATION('',(#1282),#1286);
#1282 = LINE('',#1283,#1284);
#1283 = CARTESIAN_POINT('',(-0.,0.));
#1284 = VECTOR('',#1285,1.);
#1285 = DIRECTION('',(-0.,-1.));
#1286 = ( GEOMETRIC_REPRESENTATION_CONTEXT(2) 
PARAMETRIC_REPRESENTATION_CONTEXT() REPRESENTATION_CONTEXT('2D SPACE',''
  ) );
#1287 = ORIENTED_EDGE('',*,*,#1183,.F.);
#1288 = ORIENTED_EDGE('',*,*,#1267,.F.);
#1289 = ORIENTED_EDGE('',*,*,#934,.F.);
#1290 = ORIENTED_EDGE('',*,*,#1291,.T.);
#1291 = EDGE_CURVE('',#912,#809,#1292,.T.);
#1292 = SURFACE_CURVE('',#1293,(#1298,#1305),.PCURVE_S1.);
#1293 = CIRCLE('',#1294,1.55);
#1294 = AXIS2_PLACEMENT_3D('',#1295,#1296,#1297);
#1295 = CARTESIAN_POINT('',(0.,-8.117691453624,1.05));
#1296 = DIRECTION('',(0.,0.,-1.));
#1297 = DIRECTION('',(1.,0.,0.));
#1298 = PCURVE('',#652,#1299);
#1299 = DEFINITIONAL_REPRESENTATION('',(#1300),#1304);
#1300 = LINE('',#1301,#1302);
#1301 = CARTESIAN_POINT('',(-6.28318530718,-1.05));
#1302 = VECTOR('',#1303,1.);
#1303 = DIRECTION('',(1.,-0.));
#1304 = ( GEOMETRIC_REPRESENTATION_CONTEXT(2) 
PARAMETRIC_REPRESENTATION_CONTEXT() REPRESENTATION_CONTEXT('2D SPACE',''
  ) );
#1305 = PCURVE('',#870,#1306);
#1306 = DEFINITIONAL_REPRESENTATION('',(#1307),#1311);
#1307 = CIRCLE('',#1308,1.55);
#1308 = AXIS2_PLACEMENT_2D('',#1309,#1310);
#1309 = CARTESIAN_POINT('',(1.140175425099,-3.117691453624));
#1310 = DIRECTION('',(-1.,0.));
#1311 = ( GEOMETRIC_REPRESENTATION_CONTEXT(2) 
PARAMETRIC_REPRESENTATION_CONTEXT() REPRESENTATION_CONTEXT('2D SPACE',''
  ) );
#1312 = ORIENTED_EDGE('',*,*,#808,.F.);
#1313 = ORIENTED_EDGE('',*,*,#774,.T.);
#1314 = ADVANCED_FACE('',(#1315),#716,.F.);
#1315 = FACE_BOUND('',#1316,.T.);
#1316 = EDGE_LOOP('',(#1317));
#1317 = ORIENTED_EDGE('',*,*,#699,.F.);
#1318 = ADVANCED_FACE('',(#1319),#870,.T.);
#1319 = FACE_BOUND('',#1320,.T.);
#1320 = EDGE_LOOP('',(#1321,#1322,#1323,#1344));
#1321 = ORIENTED_EDGE('',*,*,#1291,.F.);
#1322 = ORIENTED_EDGE('',*,*,#911,.T.);
#1323 = ORIENTED_EDGE('',*,*,#1324,.T.);
#1324 = EDGE_CURVE('',#883,#855,#1325,.T.);
#1325 = SURFACE_CURVE('',#1326,(#1330,#1337),.PCURVE_S1.);
#1326 = LINE('',#1327,#1328);
#1327 = CARTESIAN_POINT('',(1.140175425099,-16.,1.05));
#1328 = VECTOR('',#1329,1.);
#1329 = DIRECTION('',(-1.,0.,0.));
#1330 = PCURVE('',#870,#1331);
#1331 = DEFINITIONAL_REPRESENTATION('',(#1332),#1336);
#1332 = LINE('',#1333,#1334);
#1333 = CARTESIAN_POINT('',(0.,-11.));
#1334 = VECTOR('',#1335,1.);
#1335 = DIRECTION('',(1.,0.));
#1336 = ( GEOMETRIC_REPRESENTATION_CONTEXT(2) 
PARAMETRIC_REPRESENTATION_CONTEXT() REPRESENTATION_CONTEXT('2D SPACE',''
  ) );
#1337 = PCURVE('',#899,#1338);
#1338 = DEFINITIONAL_REPRESENTATION('',(#1339),#1343);
#1339 = LINE('',#1340,#1341);
#1340 = CARTESIAN_POINT('',(-0.154819103556,1.140175425099));
#1341 = VECTOR('',#1342,1.);
#1342 = DIRECTION('',(0.,-1.));
#1343 = ( GEOMETRIC_REPRESENTATION_CONTEXT(2) 
PARAMETRIC_REPRESENTATION_CONTEXT() REPRESENTATION_CONTEXT('2D SPACE',''
  ) );
#1344 = ORIENTED_EDGE('',*,*,#854,.F.);
#1345 = ADVANCED_FACE('',(#1346),#899,.F.);
#1346 = FACE_BOUND('',#1347,.F.);
#1347 = EDGE_LOOP('',(#1348,#1349));
#1348 = ORIENTED_EDGE('',*,*,#1324,.T.);
#1349 = ORIENTED_EDGE('',*,*,#882,.T.);
#1350 = ADVANCED_FACE('',(#1351),#1046,.T.);
#1351 = FACE_BOUND('',#1352,.T.);
#1352 = EDGE_LOOP('',(#1353,#1354,#1355,#1356));
#1353 = ORIENTED_EDGE('',*,*,#1211,.T.);
#1354 = ORIENTED_EDGE('',*,*,#1158,.T.);
#1355 = ORIENTED_EDGE('',*,*,#1109,.T.);
#1356 = ORIENTED_EDGE('',*,*,#1030,.T.);
#1357 = ( GEOMETRIC_REPRESENTATION_CONTEXT(3) 
GLOBAL_UNCERTAINTY_ASSIGNED_CONTEXT((#1361)) 
GLOBAL_UNIT_ASSIGNED_CONTEXT((#1358,#1359,#1360)) REPRESENTATION_CONTEXT
('Context #1','3D Context with UNIT and UNCERTAINTY') );
#1358 = ( LENGTH_UNIT() NAMED_UNIT(*) SI_UNIT(.MILLI.,.METRE.) );
#1359 = ( NAMED_UNIT(*) PLANE_ANGLE_UNIT() SI_UNIT($,.RADIAN.) );
#1360 = ( NAMED_UNIT(*) SI_UNIT($,.STERADIAN.) SOLID_ANGLE_UNIT() );
#1361 = UNCERTAINTY_MEASURE_WITH_UNIT(LENGTH_MEASURE(1.E-07),#1358,
  'distance_accuracy_value','confusion accuracy');
#1362 = PRODUCT_RELATED_PRODUCT_CATEGORY('part',$,(#7));
#1363 = MECHANICAL_DESIGN_GEOMETRIC_PRESENTATION_REPRESENTATION('',(
    #1364),#1357);
#1364 = STYLED_ITEM('color',(#1365),#15);
#1365 = PRESENTATION_STYLE_ASSIGNMENT((#1366,#1372));
#1366 = SURFACE_STYLE_USAGE(.BOTH.,#1367);
#1367 = SURFACE_SIDE_STYLE('',(#1368));
#1368 = SURFACE_STYLE_FILL_AREA(#1369);
#1369 = FILL_AREA_STYLE('',(#1370));
#1370 = FILL_AREA_STYLE_COLOUR('',#1371);
#1371 = COLOUR_RGB('',0.447058818107,0.474509808674,0.501960817233);
#1372 = CURVE_STYLE('',#1373,POSITIVE_LENGTH_MEASURE(0.1),#1374);
#1373 = DRAUGHTING_PRE_DEFINED_CURVE_FONT('continuous');
#1374 = COLOUR_RGB('',9.803921802644E-02,9.803921802644E-02,
  9.803921802644E-02);
ENDSEC;
END-ISO-10303-21;
